<svg xmlns="http://www.w3.org/2000/svg" width="700" height="160" fill="none"><rect width="692" height="146" x="4" fill="#EFE3D2" rx="20" style="fill:#efe3d2;fill:color(display-p3 .9373 .8902 .8235);fill-opacity:1"/><path fill="#88735A" d="M25.6 16.8h4.2l-5.4 7.8v-5.4h-4.2l5.4-7.8v5.4ZM37.24 22l3.072-8.52h1.644L45.028 22h-1.38l-.78-2.22h-3.48L38.62 22h-1.38Zm2.556-3.396h2.676l-1.344-3.888-1.332 3.888Zm8.771 3.54c-.608 0-1.14-.136-1.596-.408a2.714 2.714 0 0 1-1.056-1.164c-.248-.504-.372-1.092-.372-1.764 0-.672.124-1.256.372-1.752.248-.504.6-.892 1.056-1.164.456-.28.988-.42 1.596-.42.52 0 .98.092 1.38.276.408.176.736.436.984.78.256.344.42.764.492 1.26l-1.332.072c-.064-.416-.232-.732-.504-.948-.272-.224-.612-.336-1.02-.336-.536 0-.956.2-1.26.6-.296.392-.444.936-.444 1.632 0 .696.148 1.244.444 1.644.304.392.724.588 1.26.588.408 0 .748-.112 1.02-.336.272-.232.44-.58.504-1.044l1.332.072a2.885 2.885 0 0 1-.492 1.272c-.248.36-.576.64-.984.84-.4.2-.86.3-1.38.3Zm6.645 0c-.608 0-1.14-.136-1.596-.408a2.714 2.714 0 0 1-1.056-1.164c-.248-.504-.372-1.092-.372-1.764 0-.672.124-1.256.372-1.752.248-.504.6-.892 1.056-1.164.456-.28.988-.42 1.596-.42.52 0 .98.092 1.38.276.408.176.736.436.984.78.256.344.42.764.492 1.26l-1.332.072c-.064-.416-.232-.732-.504-.948-.272-.224-.612-.336-1.02-.336-.536 0-.956.2-1.26.6-.296.392-.444.936-.444 1.632 0 .696.148 1.244.444 1.644.304.392.724.588 1.26.588.408 0 .748-.112 1.02-.336.272-.232.44-.58.504-1.044l1.332.072a2.885 2.885 0 0 1-.492 1.272c-.248.36-.576.64-.984.84-.4.2-.86.3-1.38.3Zm6.644 0c-.624 0-1.164-.136-1.62-.408a2.739 2.739 0 0 1-1.044-1.164c-.24-.504-.36-1.092-.36-1.764 0-.672.12-1.256.36-1.752a2.739 2.739 0 0 1 1.044-1.164c.448-.28.976-.42 1.584-.42.576 0 1.084.136 1.524.408.44.264.78.648 1.02 1.152.248.504.372 1.112.372 1.824v.324h-4.584c.032.624.196 1.092.492 1.404.304.312.712.468 1.224.468.376 0 .688-.088.936-.264.248-.176.42-.412.516-.708l1.32.084a2.647 2.647 0 0 1-.996 1.44c-.488.36-1.084.54-1.788.54Zm-1.704-3.924h3.24c-.04-.568-.204-.988-.492-1.26-.28-.272-.64-.408-1.08-.408-.456 0-.832.144-1.128.432-.288.28-.468.692-.54 1.236Zm8.333 3.924c-.6 0-1.108-.092-1.524-.276-.408-.184-.724-.436-.948-.756a2.264 2.264 0 0 1-.384-1.128l1.308-.06c.064.352.216.632.456.84.24.208.604.312 1.092.312.4 0 .716-.064.948-.192.232-.128.348-.332.348-.612 0-.152-.04-.28-.12-.384-.072-.112-.216-.204-.432-.276-.216-.08-.536-.156-.96-.228-.632-.12-1.128-.26-1.488-.42-.36-.16-.616-.364-.768-.612-.152-.248-.228-.548-.228-.9 0-.584.216-1.06.648-1.428.44-.368 1.072-.552 1.896-.552.552 0 1.016.096 1.392.288.376.184.668.436.876.756.216.312.352.664.408 1.056l-1.308.072a1.335 1.335 0 0 0-.24-.576 1.072 1.072 0 0 0-.456-.384 1.513 1.513 0 0 0-.684-.144c-.408 0-.712.08-.912.24-.2.16-.3.368-.3.624 0 .192.044.348.132.468.096.12.248.22.456.3.208.072.484.136.828.192.664.112 1.184.252 1.56.42.376.16.64.36.792.6.152.24.228.532.228.876 0 .4-.112.74-.336 1.02-.224.28-.532.496-.924.648a3.921 3.921 0 0 1-1.356.216Zm6.363 0c-.6 0-1.108-.092-1.524-.276-.408-.184-.724-.436-.948-.756a2.264 2.264 0 0 1-.384-1.128l1.308-.06c.064.352.216.632.456.84.24.208.604.312 1.092.312.4 0 .716-.064.948-.192.232-.128.348-.332.348-.612 0-.152-.04-.28-.12-.384-.072-.112-.216-.204-.432-.276-.216-.08-.536-.156-.96-.228-.632-.12-1.128-.26-1.488-.42-.36-.16-.616-.364-.768-.612-.152-.248-.228-.548-.228-.9 0-.584.216-1.06.648-1.428.44-.368 1.072-.552 1.896-.552.552 0 1.016.096 1.392.288.376.184.668.436.876.756.216.312.352.664.408 1.056l-1.308.072a1.335 1.335 0 0 0-.24-.576 1.072 1.072 0 0 0-.456-.384 1.513 1.513 0 0 0-.684-.144c-.408 0-.712.08-.912.24-.2.16-.3.368-.3.624 0 .192.044.348.132.468.096.12.248.22.456.3.208.072.484.136.828.192.664.112 1.184.252 1.56.42.376.16.64.36.792.6.152.24.228.532.228.876 0 .4-.112.74-.336 1.02-.224.28-.532.496-.924.648a3.921 3.921 0 0 1-1.356.216Zm6.939 1.656v-8.184h1.2l.036 1.368-.144-.072c.16-.472.424-.828.792-1.068a2.222 2.222 0 0 1 1.272-.372c.624 0 1.136.156 1.536.468.408.304.708.708.9 1.212.2.504.3 1.056.3 1.656 0 .6-.1 1.152-.3 1.656a2.727 2.727 0 0 1-.9 1.224c-.4.304-.912.456-1.536.456a2.4 2.4 0 0 1-.9-.168 2.116 2.116 0 0 1-.72-.468 1.786 1.786 0 0 1-.408-.732l.144-.144V23.8h-1.272Zm2.928-2.76c.512 0 .912-.196 1.2-.588.296-.392.444-.94.444-1.644s-.148-1.252-.444-1.644c-.288-.392-.688-.588-1.2-.588-.336 0-.628.084-.876.252-.248.16-.44.408-.576.744-.136.336-.204.748-.204 1.236s.064.9.192 1.236c.136.336.328.588.576.756.256.16.552.24.888.24Zm4.255.96v-6.384h1.164l.048 1.692-.108-.036c.088-.576.264-.996.528-1.26.272-.264.636-.396 1.092-.396h.612v1.14h-.612c-.32 0-.588.052-.804.156a1.06 1.06 0 0 0-.492.48c-.104.216-.156.496-.156.84V22H88.97Zm6.87.144c-.624 0-1.163-.136-1.62-.408a2.739 2.739 0 0 1-1.043-1.164c-.24-.504-.36-1.092-.36-1.764 0-.672.12-1.256.36-1.752a2.739 2.739 0 0 1 1.043-1.164c.448-.28.977-.42 1.585-.42.575 0 1.083.136 1.523.408.44.264.78.648 1.02 1.152.249.504.373 1.112.373 1.824v.324h-4.585c.032.624.197 1.092.493 1.404.303.312.712.468 1.224.468.376 0 .688-.088.936-.264.248-.176.42-.412.516-.708l1.32.084a2.647 2.647 0 0 1-.996 1.44c-.489.36-1.085.54-1.788.54Zm-1.704-3.924h3.24c-.04-.568-.204-.988-.492-1.26-.28-.272-.64-.408-1.08-.408-.456 0-.832.144-1.127.432-.289.28-.469.692-.54 1.236ZM100.01 22v-6.384h1.164l.036 1.584-.144-.048c.072-.352.196-.652.372-.9a1.93 1.93 0 0 1 .672-.576c.264-.136.552-.204.864-.204.544 0 .988.156 1.332.468.344.304.56.724.648 1.26h-.204c.072-.376.192-.688.36-.936.176-.256.4-.452.672-.588.272-.136.58-.204.924-.204.448 0 .828.096 1.14.288.32.184.56.456.72.816.168.36.252.8.252 1.32V22h-1.272v-3.792c0-.552-.1-.968-.3-1.248-.2-.28-.504-.42-.912-.42-.264 0-.496.068-.696.204-.2.136-.356.332-.468.588a2.453 2.453 0 0 0-.156.924V22h-1.212v-3.744c0-.544-.092-.964-.276-1.26-.176-.304-.48-.456-.912-.456-.272 0-.508.068-.708.204a1.364 1.364 0 0 0-.456.6c-.112.256-.168.56-.168.912V22h-1.272Zm10.5 0v-6.384h1.272V22h-1.272Zm-.024-7.308V13.42h1.32v1.272h-1.32Zm4.972 7.452c-.64 0-1.152-.212-1.536-.636-.376-.432-.564-1.028-.564-1.788v-4.104h1.272v3.78c0 .576.1 1 .3 1.272.2.272.504.408.912.408.464 0 .824-.148 1.08-.444.264-.304.396-.728.396-1.272v-3.744h1.272V22h-1.188l-.024-1.668.18.072c-.112.56-.348.992-.708 1.296-.36.296-.824.444-1.392.444Zm4.931-.144v-6.384h1.164l.036 1.584-.144-.048c.072-.352.196-.652.372-.9a1.93 1.93 0 0 1 .672-.576c.264-.136.552-.204.864-.204.544 0 .988.156 1.332.468.344.304.56.724.648 1.26h-.204c.072-.376.192-.688.36-.936.176-.256.4-.452.672-.588.272-.136.58-.204.924-.204.448 0 .828.096 1.14.288.32.184.56.456.72.816.168.36.252.8.252 1.32V22h-1.272v-3.792c0-.552-.1-.968-.3-1.248-.2-.28-.504-.42-.912-.42-.264 0-.496.068-.696.204-.2.136-.356.332-.468.588a2.453 2.453 0 0 0-.156.924V22h-1.212v-3.744c0-.544-.092-.964-.276-1.26-.176-.304-.48-.456-.912-.456-.272 0-.508.068-.708.204a1.364 1.364 0 0 0-.456.6c-.112.256-.168.56-.168.912V22h-1.272Zm13.535 0v-6.384h1.164l.036 1.584-.144-.048c.072-.352.196-.652.372-.9a1.93 1.93 0 0 1 .672-.576c.264-.136.552-.204.864-.204.544 0 .988.156 1.332.468.344.304.56.724.648 1.26h-.204c.072-.376.192-.688.36-.936.176-.256.4-.452.672-.588.272-.136.58-.204.924-.204.448 0 .828.096 1.14.288.32.184.56.456.72.816.168.36.252.8.252 1.32V22h-1.272v-3.792c0-.552-.1-.968-.3-1.248-.2-.28-.504-.42-.912-.42-.264 0-.496.068-.696.204-.2.136-.356.332-.468.588a2.453 2.453 0 0 0-.156.924V22h-1.212v-3.744c0-.544-.092-.964-.276-1.26-.176-.304-.48-.456-.912-.456-.272 0-.508.068-.708.204a1.364 1.364 0 0 0-.456.6c-.112.256-.168.56-.168.912V22h-1.272Zm13.105.144c-.608 0-1.14-.136-1.596-.408a2.714 2.714 0 0 1-1.056-1.164c-.248-.504-.372-1.092-.372-1.764 0-.68.124-1.268.372-1.764s.6-.88 1.056-1.152c.456-.28.988-.42 1.596-.42.608 0 1.14.14 1.596.42.456.272.808.656 1.056 1.152.248.496.372 1.084.372 1.764 0 .672-.124 1.26-.372 1.764s-.6.892-1.056 1.164c-.456.272-.988.408-1.596.408Zm0-1.104c.544 0 .964-.196 1.26-.588.296-.4.444-.948.444-1.644s-.148-1.24-.444-1.632c-.296-.4-.716-.6-1.26-.6-.536 0-.956.2-1.26.6-.296.392-.444.936-.444 1.632 0 .696.148 1.244.444 1.644.304.392.724.588 1.26.588Zm6.577 1.104c-.543 0-1.019-.136-1.427-.408-.4-.272-.708-.656-.924-1.152-.208-.504-.312-1.096-.312-1.776 0-.68.108-1.268.324-1.764.216-.504.524-.892.924-1.164.4-.272.872-.408 1.415-.408.441 0 .833.092 1.177.276.344.184.604.44.78.768V13.48h1.272V22h-1.188l-.036-.96a1.927 1.927 0 0 1-.804.816 2.466 2.466 0 0 1-1.201.288Zm.337-1.104c.344 0 .636-.088.876-.264.24-.176.424-.432.552-.768.128-.336.192-.736.192-1.2 0-.48-.064-.884-.192-1.212-.128-.336-.312-.588-.552-.756-.24-.176-.532-.264-.876-.264-.512 0-.92.2-1.224.6-.304.392-.456.936-.456 1.632 0 .688.152 1.232.456 1.632.304.4.712.6 1.224.6Zm7.207 1.104c-.624 0-1.164-.136-1.62-.408a2.739 2.739 0 0 1-1.044-1.164c-.24-.504-.36-1.092-.36-1.764 0-.672.12-1.256.36-1.752a2.739 2.739 0 0 1 1.044-1.164c.448-.28.976-.42 1.584-.42.576 0 1.084.136 1.524.408.44.264.78.648 1.02 1.152.248.504.372 1.112.372 1.824v.324h-4.584c.032.624.196 1.092.492 1.404.304.312.712.468 1.224.468.376 0 .688-.088.936-.264.248-.176.42-.412.516-.708l1.32.084a2.647 2.647 0 0 1-.996 1.44c-.488.36-1.084.54-1.788.54Zm-1.704-3.924h3.24c-.04-.568-.204-.988-.492-1.26-.28-.272-.64-.408-1.08-.408-.456 0-.832.144-1.128.432-.288.28-.468.692-.54 1.236ZM166.77 22c-.416 0-.752-.108-1.008-.324-.256-.216-.384-.56-.384-1.032V13.48h1.272v7.044c0 .144.036.252.108.324.08.072.192.108.336.108h.504V22h-.828Zm4.372.144c-.6 0-1.108-.092-1.524-.276-.408-.184-.724-.436-.948-.756a2.264 2.264 0 0 1-.384-1.128l1.308-.06c.064.352.216.632.456.84.24.208.604.312 1.092.312.4 0 .716-.064.948-.192.232-.128.348-.332.348-.612 0-.152-.04-.28-.12-.384-.072-.112-.216-.204-.432-.276-.216-.08-.536-.156-.96-.228-.632-.12-1.128-.26-1.488-.42-.36-.16-.616-.364-.768-.612-.152-.248-.228-.548-.228-.9 0-.584.216-1.06.648-1.428.44-.368 1.072-.552 1.896-.552.552 0 1.016.096 1.392.288.376.184.668.436.876.756.216.312.352.664.408 1.056l-1.308.072a1.335 1.335 0 0 0-.24-.576 1.072 1.072 0 0 0-.456-.384 1.513 1.513 0 0 0-.684-.144c-.408 0-.712.08-.912.24-.2.16-.3.368-.3.624 0 .192.044.348.132.468.096.12.248.22.456.3.208.072.484.136.828.192.664.112 1.184.252 1.56.42.376.16.64.36.792.6.152.24.228.532.228.876 0 .4-.112.74-.336 1.02-.224.28-.532.496-.924.648a3.921 3.921 0 0 1-1.356.216Zm9.279.048c-.872 0-1.552-.196-2.04-.588-.488-.4-.732-.964-.732-1.692 0-.368.052-.696.156-.984.112-.288.292-.56.54-.816a5.68 5.68 0 0 1 1.008-.816 7.969 7.969 0 0 1-.468-.648 3.173 3.173 0 0 1-.3-.624 2.44 2.44 0 0 1-.096-.696c0-.632.196-1.128.588-1.488.4-.368.952-.552 1.656-.552.472 0 .872.08 1.2.24.328.152.576.372.744.66.168.28.252.612.252.996 0 .472-.144.888-.432 1.248-.28.36-.736.74-1.368 1.14l1.74 2.208c.264-.36.396-.904.396-1.632l1.284.12a4.416 4.416 0 0 1-.264 1.368 3.31 3.31 0 0 1-.6 1.092L184.752 22h-1.512l-.396-.48c-.24.2-.568.36-.984.48-.408.128-.888.192-1.44.192Zm.132-1.164c.36 0 .66-.04.9-.12.24-.08.424-.184.552-.312l-1.932-2.412c-.384.264-.66.524-.828.78-.168.248-.252.54-.252.876 0 .36.124.648.372.864.256.216.652.324 1.188.324Zm-.096-4.296a5.34 5.34 0 0 0 .66-.468c.168-.152.288-.308.36-.468.072-.16.108-.332.108-.516 0-.256-.076-.452-.228-.588-.144-.144-.348-.216-.612-.216-.288 0-.516.076-.684.228-.16.152-.24.368-.24.648 0 .144.02.288.06.432.04.136.104.28.192.432.096.152.224.324.384.516ZM189.45 22v-6.792c0-.528.148-.948.444-1.26.296-.312.76-.468 1.392-.468h1.128v1.044h-.96c-.248 0-.432.068-.552.204-.12.128-.18.312-.18.552V22h-1.272Zm-.888-5.268V15.7h3.756v1.032h-3.756Zm7.31 5.412c-.624 0-1.164-.136-1.62-.408a2.739 2.739 0 0 1-1.044-1.164c-.24-.504-.36-1.092-.36-1.764 0-.672.12-1.256.36-1.752a2.739 2.739 0 0 1 1.044-1.164c.448-.28.976-.42 1.584-.42.576 0 1.084.136 1.524.408.44.264.78.648 1.02 1.152.248.504.372 1.112.372 1.824v.324h-4.584c.032.624.196 1.092.492 1.404.304.312.712.468 1.224.468.376 0 .688-.088.936-.264.248-.176.42-.412.516-.708l1.32.084a2.647 2.647 0 0 1-.996 1.44c-.488.36-1.084.54-1.788.54Zm-1.704-3.924h3.24c-.04-.568-.204-.988-.492-1.26-.28-.272-.64-.408-1.08-.408-.456 0-.832.144-1.128.432-.288.28-.468.692-.54 1.236Zm7.79 3.924c-.664 0-1.196-.152-1.596-.456-.392-.304-.588-.732-.588-1.284s.164-.98.492-1.284c.336-.312.852-.536 1.548-.672l2.196-.42c0-.496-.116-.864-.348-1.104-.232-.248-.576-.372-1.032-.372-.408 0-.728.092-.96.276-.232.176-.392.44-.48.792l-1.308-.084c.12-.64.416-1.144.888-1.512.48-.368 1.1-.552 1.86-.552.864 0 1.52.232 1.968.696.456.456.684 1.1.684 1.932v2.484c0 .152.024.26.072.324.056.056.144.084.264.084h.228V22a3.05 3.05 0 0 1-.468.036c-.272 0-.508-.044-.708-.132a.873.873 0 0 1-.432-.432c-.096-.208-.144-.484-.144-.828l.132.06c-.064.28-.204.528-.42.744a2.213 2.213 0 0 1-.804.516c-.32.12-.668.18-1.044.18Zm.204-1.008c.384 0 .712-.072.984-.216.272-.152.484-.36.636-.624a1.77 1.77 0 0 0 .228-.9v-.408l-1.872.36c-.384.072-.656.188-.816.348a.796.796 0 0 0-.228.588c0 .272.092.484.276.636.192.144.456.216.792.216Zm6.877.864c-.608 0-1.056-.14-1.344-.42-.288-.28-.432-.716-.432-1.308v-6.156h1.272v6.06c0 .296.064.5.192.612.128.112.324.168.588.168h.912V22h-1.188Zm-2.748-5.34v-1.044h3.936v1.044h-3.936Zm7.275 5.484c-.64 0-1.152-.212-1.536-.636-.376-.432-.564-1.028-.564-1.788v-4.104h1.272v3.78c0 .576.1 1 .3 1.272.2.272.504.408.912.408.464 0 .824-.148 1.08-.444.264-.304.396-.728.396-1.272v-3.744h1.272V22h-1.188l-.024-1.668.18.072c-.112.56-.348.992-.708 1.296-.36.296-.824.444-1.392.444Zm4.932-.144v-6.384h1.164l.048 1.692-.108-.036c.088-.576.264-.996.528-1.26.272-.264.636-.396 1.092-.396h.612v1.14h-.612c-.32 0-.588.052-.804.156a1.06 1.06 0 0 0-.492.48c-.104.216-.156.496-.156.84V22h-1.272Zm6.87.144c-.624 0-1.164-.136-1.62-.408a2.739 2.739 0 0 1-1.044-1.164c-.24-.504-.36-1.092-.36-1.764 0-.672.12-1.256.36-1.752a2.739 2.739 0 0 1 1.044-1.164c.448-.28.976-.42 1.584-.42.576 0 1.084.136 1.524.408.44.264.78.648 1.02 1.152.248.504.372 1.112.372 1.824v.324h-4.584c.032.624.196 1.092.492 1.404.304.312.712.468 1.224.468.376 0 .688-.088.936-.264.248-.176.42-.412.516-.708l1.32.084a2.647 2.647 0 0 1-.996 1.44c-.488.36-1.084.54-1.788.54Zm-1.704-3.924h3.24c-.04-.568-.204-.988-.492-1.26-.28-.272-.64-.408-1.08-.408-.456 0-.832.144-1.128.432-.288.28-.468.692-.54 1.236Zm8.333 3.924c-.6 0-1.108-.092-1.524-.276-.408-.184-.724-.436-.948-.756a2.264 2.264 0 0 1-.384-1.128l1.308-.06c.064.352.216.632.456.84.24.208.604.312 1.092.312.4 0 .716-.064.948-.192.232-.128.348-.332.348-.612 0-.152-.04-.28-.12-.384-.072-.112-.216-.204-.432-.276-.216-.08-.536-.156-.96-.228-.632-.12-1.128-.26-1.488-.42-.36-.16-.616-.364-.768-.612-.152-.248-.228-.548-.228-.9 0-.584.216-1.06.648-1.428.44-.368 1.072-.552 1.896-.552.552 0 1.016.096 1.392.288.376.184.668.436.876.756.216.312.352.664.408 1.056l-1.308.072a1.335 1.335 0 0 0-.24-.576 1.072 1.072 0 0 0-.456-.384 1.513 1.513 0 0 0-.684-.144c-.408 0-.712.08-.912.24-.2.16-.3.368-.3.624 0 .192.044.348.132.468.096.12.248.22.456.3.208.072.484.136.828.192.664.112 1.184.252 1.56.42.376.16.64.36.792.6.152.24.228.532.228.876 0 .4-.112.74-.336 1.02-.224.28-.532.496-.924.648a3.921 3.921 0 0 1-1.356.216Z" style="fill:#88735a;fill:color(display-p3 .5333 .451 .3529);fill-opacity:1"/><path fill="#D1D1D1" d="M242.003 18.664a.968.968 0 0 1-.708-.3c-.2-.2-.3-.436-.3-.708 0-.28.1-.516.3-.708.2-.2.436-.3.708-.3.28 0 .516.1.708.3.2.192.3.428.3.708 0 .272-.1.508-.3.708-.192.2-.428.3-.708.3Z" style="fill:#d1d1d1;fill:color(display-p3 .82 .82 .82);fill-opacity:1"/><path fill="#219171" d="M252.104 22.192c-.68 0-1.272-.124-1.776-.372a2.95 2.95 0 0 1-1.176-1.032 3.24 3.24 0 0 1-.504-1.536l1.332-.084c.056.4.172.74.348 1.02.176.272.412.48.708.624.304.136.668.204 1.092.204a2.9 2.9 0 0 0 .936-.132c.264-.096.464-.236.6-.42a1.1 1.1 0 0 0 .204-.672c0-.24-.06-.452-.18-.636-.112-.192-.332-.364-.66-.516-.32-.16-.792-.316-1.416-.468-.68-.168-1.224-.352-1.632-.552-.408-.2-.704-.448-.888-.744-.176-.304-.264-.676-.264-1.116 0-.488.116-.916.348-1.284.24-.376.58-.668 1.02-.876.44-.208.968-.312 1.584-.312.648 0 1.2.12 1.656.36.464.24.828.568 1.092.984.272.416.44.892.504 1.428l-1.332.072a2.022 2.022 0 0 0-.3-.864 1.586 1.586 0 0 0-.648-.588c-.272-.144-.604-.216-.996-.216-.496 0-.888.116-1.176.348-.28.224-.42.524-.42.9 0 .24.056.444.168.612.12.16.328.3.624.42.304.12.732.248 1.284.384.736.168 1.32.376 1.752.624.44.24.752.524.936.852.184.328.276.7.276 1.116 0 .504-.132.944-.396 1.32-.256.368-.616.652-1.08.852-.464.2-1.004.3-1.62.3Zm4.472-.192v-6.384h1.272V22h-1.272Zm-.024-7.308V13.42h1.32v1.272h-1.32Zm5.545 9.252c-.504 0-.948-.076-1.332-.228a2.442 2.442 0 0 1-.948-.648 2.138 2.138 0 0 1-.504-.96l1.32-.084c.088.264.24.472.456.624.224.16.56.24 1.008.24.528 0 .932-.112 1.212-.336.288-.224.432-.564.432-1.02v-.924a1.72 1.72 0 0 1-.732.78 2.233 2.233 0 0 1-1.128.288 2.608 2.608 0 0 1-1.428-.396 2.685 2.685 0 0 1-.972-1.092c-.232-.464-.348-1-.348-1.608 0-.616.112-1.156.336-1.62.232-.464.552-.828.96-1.092a2.565 2.565 0 0 1 1.404-.396c.456 0 .856.104 1.2.312.352.208.604.488.756.84v-1.008h1.224v5.88c0 .528-.12.972-.36 1.332a2.119 2.119 0 0 1-1.008.828c-.432.192-.948.288-1.548.288Zm-.012-3.348c.496 0 .892-.18 1.188-.54.304-.36.46-.856.468-1.488.008-.416-.056-.772-.192-1.068a1.533 1.533 0 0 0-.588-.696 1.524 1.524 0 0 0-.876-.252c-.52 0-.924.184-1.212.552-.28.36-.42.848-.42 1.464 0 .624.144 1.12.432 1.488.296.36.696.54 1.2.54ZM266.818 22v-6.384h1.164l.048 1.704-.156-.084c.072-.416.208-.752.408-1.008.2-.256.444-.444.732-.564.288-.128.6-.192.936-.192.48 0 .876.108 1.188.324.32.208.56.496.72.864.168.36.252.772.252 1.236V22h-1.272v-3.72c0-.376-.04-.692-.12-.948a1.12 1.12 0 0 0-.396-.588c-.184-.136-.424-.204-.72-.204-.448 0-.812.148-1.092.444-.28.296-.42.728-.42 1.296V22h-1.272Zm12.108.144c-.64 0-1.152-.212-1.536-.636-.376-.432-.564-1.028-.564-1.788v-4.104h1.272v3.78c0 .576.1 1 .3 1.272.2.272.504.408.912.408.464 0 .824-.148 1.08-.444.264-.304.396-.728.396-1.272v-3.744h1.272V22h-1.188l-.024-1.668.18.072c-.112.56-.348.992-.708 1.296-.36.296-.824.444-1.392.444Zm4.931 1.656v-8.184h1.2l.036 1.368-.144-.072c.16-.472.424-.828.792-1.068a2.222 2.222 0 0 1 1.272-.372c.624 0 1.136.156 1.536.468.408.304.708.708.9 1.212.2.504.3 1.056.3 1.656 0 .6-.1 1.152-.3 1.656a2.727 2.727 0 0 1-.9 1.224c-.4.304-.912.456-1.536.456a2.4 2.4 0 0 1-.9-.168 2.116 2.116 0 0 1-.72-.468 1.786 1.786 0 0 1-.408-.732l.144-.144V23.8h-1.272Zm2.928-2.76c.512 0 .912-.196 1.2-.588.296-.392.444-.94.444-1.644s-.148-1.252-.444-1.644c-.288-.392-.688-.588-1.2-.588-.336 0-.628.084-.876.252-.248.16-.44.408-.576.744-.136.336-.204.748-.204 1.236s.064.9.192 1.236c.136.336.328.588.576.756.256.16.552.24.888.24Zm7.939.96v-6.792c0-.528.148-.948.444-1.26.296-.312.76-.468 1.392-.468h1.128v1.044h-.96c-.248 0-.432.068-.552.204-.12.128-.18.312-.18.552V22h-1.272Zm-.888-5.268V15.7h3.756v1.032h-3.756Zm7.309 5.412c-.608 0-1.14-.136-1.596-.408a2.714 2.714 0 0 1-1.056-1.164c-.248-.504-.372-1.092-.372-1.764 0-.68.124-1.268.372-1.764s.6-.88 1.056-1.152c.456-.28.988-.42 1.596-.42.608 0 1.14.14 1.596.42.456.272.808.656 1.056 1.152.248.496.372 1.084.372 1.764 0 .672-.124 1.26-.372 1.764s-.6.892-1.056 1.164c-.456.272-.988.408-1.596.408Zm0-1.104c.544 0 .964-.196 1.26-.588.296-.4.444-.948.444-1.644s-.148-1.24-.444-1.632c-.296-.4-.716-.6-1.26-.6-.536 0-.956.2-1.26.6-.296.392-.444.936-.444 1.632 0 .696.148 1.244.444 1.644.304.392.724.588 1.26.588Zm4.31.96v-6.384h1.164l.048 1.692-.108-.036c.088-.576.264-.996.528-1.26.272-.264.636-.396 1.092-.396h.612v1.14h-.612c-.32 0-.588.052-.804.156a1.06 1.06 0 0 0-.492.48c-.104.216-.156.496-.156.84V22h-1.272Zm8.288 0v-6.792c0-.528.148-.948.444-1.26.296-.312.76-.468 1.392-.468h1.128v1.044h-.96c-.248 0-.432.068-.552.204-.12.128-.18.312-.18.552V22h-1.272Zm-.888-5.268V15.7h3.756v1.032h-3.756ZM317.701 22v-6.384h1.164l.048 1.692-.108-.036c.088-.576.264-.996.528-1.26.272-.264.636-.396 1.092-.396h.612v1.14h-.612c-.32 0-.588.052-.804.156a1.06 1.06 0 0 0-.492.48c-.104.216-.156.496-.156.84V22h-1.272Zm6.87.144c-.624 0-1.164-.136-1.62-.408a2.739 2.739 0 0 1-1.044-1.164c-.24-.504-.36-1.092-.36-1.764 0-.672.12-1.256.36-1.752a2.739 2.739 0 0 1 1.044-1.164c.448-.28.976-.42 1.584-.42.576 0 1.084.136 1.524.408.44.264.78.648 1.02 1.152.248.504.372 1.112.372 1.824v.324h-4.584c.032.624.196 1.092.492 1.404.304.312.712.468 1.224.468.376 0 .688-.088.936-.264.248-.176.42-.412.516-.708l1.32.084a2.647 2.647 0 0 1-.996 1.44c-.488.36-1.084.54-1.788.54Zm-1.704-3.924h3.24c-.04-.568-.204-.988-.492-1.26-.28-.272-.64-.408-1.08-.408-.456 0-.832.144-1.128.432-.288.28-.468.692-.54 1.236Zm8.501 3.924c-.624 0-1.164-.136-1.62-.408a2.739 2.739 0 0 1-1.044-1.164c-.24-.504-.36-1.092-.36-1.764 0-.672.12-1.256.36-1.752a2.739 2.739 0 0 1 1.044-1.164c.448-.28.976-.42 1.584-.42.576 0 1.084.136 1.524.408.44.264.78.648 1.02 1.152.248.504.372 1.112.372 1.824v.324h-4.584c.032.624.196 1.092.492 1.404.304.312.712.468 1.224.468.376 0 .688-.088.936-.264.248-.176.42-.412.516-.708l1.32.084a2.647 2.647 0 0 1-.996 1.44c-.488.36-1.084.54-1.788.54Zm-1.704-3.924h3.24c-.04-.568-.204-.988-.492-1.26-.28-.272-.64-.408-1.08-.408-.456 0-.832.144-1.128.432-.288.28-.468.692-.54 1.236Z" style="fill:#219171;fill:color(display-p3 .1294 .5686 .4431);fill-opacity:1"/><g filter="url(#a)"><rect width="690" height="109" x="5" y="36" fill="#FFFDFA" rx="19" style="fill:#fffdfa;fill:color(display-p3 1 .992 .98);fill-opacity:1"/><path fill="#BFA382" d="M22.284 67V56.09h1.422v4.822h5.7V56.09h1.422V67h-1.422v-4.842h-5.7V67h-1.422Zm14.23.17c-.747 0-1.4-.175-1.961-.527a3.557 3.557 0 0 1-1.31-1.475c-.313-.633-.47-1.371-.47-2.216 0-.853.157-1.596.47-2.232a3.55 3.55 0 0 1 1.31-1.481c.561-.352 1.215-.527 1.96-.527.75 0 1.403.175 1.96.527a3.55 3.55 0 0 1 1.31 1.48c.313.636.47 1.38.47 2.233 0 .845-.157 1.584-.47 2.216a3.557 3.557 0 0 1-1.31 1.475c-.557.352-1.21.528-1.96.528Zm.005-1.193c.54 0 .985-.14 1.337-.42.351-.281.612-.65.783-1.109.17-.461.255-.96.255-1.496a4.32 4.32 0 0 0-.255-1.508 2.53 2.53 0 0 0-.783-1.118c-.352-.285-.798-.426-1.337-.426-.544 0-.991.142-1.343.426a2.53 2.53 0 0 0-.783 1.118c-.17.462-.255.964-.255 1.508 0 .536.085 1.035.255 1.496.17.459.432.828.783 1.109.352.28.8.42 1.343.42ZM43.61 67l-2.466-8.182h1.417l1.72 6.19h.086l1.704-6.19h1.433l1.683 6.163h.086l1.715-6.163h1.422L49.944 67H48.59l-1.753-6.174h-.122L44.963 67H43.61Zm17.74.17c-.773 0-1.44-.18-1.997-.543a3.563 3.563 0 0 1-1.289-1.497c-.302-.635-.453-1.361-.453-2.178 0-.831.155-1.565.464-2.2a3.593 3.593 0 0 1 1.3-1.497c.557-.362 1.21-.543 1.96-.543.586 0 1.113.11 1.582.33.472.216.855.52 1.15.91.299.391.482.85.549 1.375h-1.348a1.912 1.912 0 0 0-.623-.99c-.32-.288-.75-.432-1.289-.432-.476 0-.893.124-1.252.373-.355.245-.632.593-.83 1.044-.2.45-.299.98-.299 1.587 0 .622.098 1.161.293 1.62.195.458.47.813.826 1.065.358.252.779.378 1.262.378a2.2 2.2 0 0 0 .868-.165c.263-.114.483-.277.66-.49.182-.213.31-.469.384-.767h1.348c-.067.5-.243.948-.527 1.342a2.96 2.96 0 0 1-1.119.938c-.462.227-1.001.34-1.62.34Zm7.375.016c-.519 0-.99-.097-1.412-.293a2.392 2.392 0 0 1-1.001-.852c-.249-.373-.373-.825-.373-1.358 0-.469.09-.85.272-1.145.184-.295.43-.526.735-.693.308-.17.65-.298 1.022-.383a11.04 11.04 0 0 1 1.14-.197c.494-.064.895-.114 1.204-.15.309-.035.535-.094.677-.175.142-.082.213-.222.213-.421v-.043c0-.508-.14-.902-.421-1.182-.277-.28-.694-.421-1.252-.421-.582 0-1.039.128-1.369.383-.33.256-.563.531-.698.826l-1.283-.4c.202-.497.479-.889.83-1.177a3.25 3.25 0 0 1 1.178-.612 4.84 4.84 0 0 1 1.305-.181c.28 0 .595.033.943.1.351.068.687.2 1.006.395.323.192.59.48.8.863.212.383.319.893.319 1.529V67h-1.348v-1.108h-.064a2.197 2.197 0 0 1-.436.58 2.445 2.445 0 0 1-.794.507c-.327.138-.725.207-1.193.207Zm.24-1.171c.479 0 .885-.094 1.22-.283a1.939 1.939 0 0 0 1.016-1.688V62.92c-.053.06-.166.117-.34.17a5.13 5.13 0 0 1-.597.128 26.148 26.148 0 0 1-1.172.16c-.323.042-.621.11-.895.202a1.533 1.533 0 0 0-.66.416c-.167.18-.25.426-.25.735 0 .426.157.747.474.964.316.213.717.32 1.203.32Zm7.107-3.916V67h-1.358v-8.182h1.31v1.295h.107c.192-.423.484-.762.879-1.018.394-.255.898-.383 1.512-.383.558 0 1.044.113 1.46.34.415.228.739.57.97 1.029.23.454.346 1.028.346 1.72V67h-1.359v-5.082c0-.628-.163-1.118-.49-1.47-.323-.355-.77-.532-1.342-.532-.39 0-.739.085-1.044.255-.306.17-.547.42-.725.746-.177.323-.266.717-.266 1.182Zm13.022-6.008V67h-1.422V56.09h1.422Zm7.727 6.008V67h-1.359V56.09h1.353v4.023h.107c.192-.43.48-.771.868-1.023.387-.252.902-.378 1.545-.378.557 0 1.046.111 1.465.335.419.224.744.565.974 1.023.235.458.352 1.035.352 1.731V67h-1.358v-5.082c.003-.635-.16-1.127-.49-1.475-.327-.352-.78-.527-1.359-.527-.401 0-.761.085-1.081.255-.316.17-.565.42-.746.746-.18.323-.272.717-.272 1.182Zm10.92 5.072c-.792 0-1.476-.175-2.051-.523a3.482 3.482 0 0 1-1.326-1.47c-.309-.632-.464-1.367-.464-2.205 0-.842.155-1.582.464-2.221a3.636 3.636 0 0 1 1.299-1.497c.558-.362 1.21-.543 1.955-.543.437 0 .865.072 1.284.218a3.17 3.17 0 0 1 1.145.698c.341.32.613.74.815 1.262.203.522.304 1.161.304 1.918v.543H104.8v-1.118h5.002c0-.448-.09-.847-.271-1.199a2.04 2.04 0 0 0-.757-.83c-.326-.203-.712-.304-1.156-.304-.483 0-.902.119-1.257.356a2.402 2.402 0 0 0-.82.927c-.188.38-.282.79-.282 1.23v.784c0 .596.103 1.102.309 1.518.209.415.5.731.873.948.373.213.808.32 1.305.32.323 0 .614-.047.874-.139.263-.092.49-.23.682-.415.191-.185.339-.416.442-.693l1.299.325a2.69 2.69 0 0 1-.644 1.108 3.1 3.1 0 0 1-1.135.74 4.203 4.203 0 0 1-1.523.261Zm6.566-11.08V67h-1.359V56.09h1.359Zm2.169 13.977v-11.25h1.321v1.305h.144a7.66 7.66 0 0 1 .389-.554 2.25 2.25 0 0 1 .714-.596c.312-.174.731-.261 1.257-.261.678 0 1.278.17 1.8.511.526.34.936.827 1.231 1.46.298.632.447 1.38.447 2.247 0 .87-.147 1.623-.442 2.259-.295.632-.703 1.12-1.225 1.465-.518.34-1.117.511-1.795.511-.515 0-.93-.085-1.246-.256a2.34 2.34 0 0 1-.736-.596 6.86 6.86 0 0 1-.394-.575h-.106v4.33h-1.359Zm1.337-7.159c0 .604.087 1.137.261 1.598.178.458.435.817.773 1.076.341.26.756.389 1.246.389.512 0 .938-.135 1.279-.405a2.49 2.49 0 0 0 .777-1.102c.178-.466.267-.984.267-1.556 0-.565-.087-1.072-.261-1.523-.171-.455-.428-.814-.773-1.076-.341-.267-.77-.4-1.289-.4-.497 0-.916.126-1.257.378-.337.249-.593.599-.767 1.05-.17.447-.256.97-.256 1.571Zm12.667 7.16c-.22 0-.417-.019-.591-.054a1.788 1.788 0 0 1-.373-.107l.336-1.166c.301.081.568.112.799.09a.976.976 0 0 0 .623-.293c.181-.177.344-.467.49-.868l.229-.607-3.02-8.246h1.464l2.206 6.467h.085l2.205-6.467h1.465l-3.446 9.343c-.153.426-.347.78-.581 1.06a2.228 2.228 0 0 1-.82.634c-.313.142-.67.213-1.071.213Zm10.504-2.898c-.746 0-1.4-.176-1.961-.528a3.553 3.553 0 0 1-1.31-1.475c-.313-.633-.469-1.371-.469-2.216 0-.853.156-1.596.469-2.232a3.547 3.547 0 0 1 1.31-1.481c.561-.352 1.215-.527 1.961-.527.749 0 1.402.175 1.96.527a3.55 3.55 0 0 1 1.31 1.48c.313.636.469 1.38.469 2.233 0 .845-.156 1.584-.469 2.216a3.553 3.553 0 0 1-1.31 1.475c-.558.352-1.211.528-1.96.528Zm.005-1.194c.54 0 .985-.14 1.337-.42.351-.281.612-.65.783-1.109.17-.461.256-.96.256-1.496a4.33 4.33 0 0 0-.256-1.508 2.539 2.539 0 0 0-.783-1.118c-.352-.285-.797-.426-1.337-.426-.543 0-.991.142-1.342.426a2.523 2.523 0 0 0-.783 1.118 4.308 4.308 0 0 0-.256 1.508c0 .536.085 1.035.256 1.496.17.459.431.828.783 1.109.351.28.799.42 1.342.42Zm10.69-2.338v-4.82h1.358V67h-1.348v-1.396h-.085c-.192.423-.492.78-.9 1.071-.405.288-.916.431-1.534.431a2.74 2.74 0 0 1-1.374-.34c-.398-.228-.711-.569-.938-1.023-.227-.458-.343-1.033-.346-1.726v-5.199h1.358V63.9c0 .586.164 1.053.49 1.4.331.349.751.523 1.263.523a2.1 2.1 0 0 0 .937-.235 2.01 2.01 0 0 0 .794-.719c.216-.323.325-.733.325-1.23Zm11.211-4.82v1.128h-4.309v-1.129h4.309Zm-3.084-1.961h1.358v7.782c0 .341.05.597.149.767.103.167.235.28.394.341.16.057.331.085.512.085.135 0 .247-.008.335-.026l.219-.043.266 1.188a2.815 2.815 0 0 1-.964.154 2.616 2.616 0 0 1-1.087-.223 2.088 2.088 0 0 1-.852-.709c-.22-.316-.33-.715-.33-1.198v-8.118Zm8.122 10.313c-.745 0-1.399-.176-1.96-.528a3.553 3.553 0 0 1-1.31-1.475c-.313-.633-.469-1.371-.469-2.216 0-.853.156-1.596.469-2.232a3.547 3.547 0 0 1 1.31-1.481c.561-.352 1.215-.527 1.96-.527.75 0 1.403.175 1.96.527.562.352.998.845 1.311 1.48.312.636.469 1.38.469 2.233 0 .845-.157 1.584-.469 2.216a3.556 3.556 0 0 1-1.311 1.475c-.557.352-1.21.528-1.96.528Zm.006-1.194c.539 0 .985-.14 1.337-.42.351-.281.612-.65.783-1.109.17-.461.255-.96.255-1.496a4.33 4.33 0 0 0-.255-1.508 2.539 2.539 0 0 0-.783-1.118c-.352-.285-.798-.426-1.337-.426-.544 0-.991.142-1.343.426a2.539 2.539 0 0 0-.783 1.118 4.33 4.33 0 0 0-.255 1.508c0 .536.085 1.035.255 1.496.171.459.432.828.783 1.109.352.28.799.42 1.343.42Zm8.607 1.188c-.675 0-1.273-.17-1.795-.511-.519-.345-.925-.833-1.22-1.465-.295-.636-.442-1.389-.442-2.259 0-.866.147-1.615.442-2.248.295-.632.703-1.118 1.225-1.459.526-.34 1.129-.511 1.811-.511.522 0 .938.087 1.247.26.312.175.552.373.719.597.17.22.301.405.394.554h.101v-4.032h1.358V67h-1.315v-1.262h-.144a7.138 7.138 0 0 1-.405.575c-.17.224-.414.422-.73.596-.312.17-.728.256-1.246.256Zm.223-1.193c.491 0 .904-.13 1.242-.389.341-.26.6-.618.777-1.076.178-.462.267-.994.267-1.598 0-.6-.087-1.124-.261-1.571-.174-.451-.432-.801-.773-1.05-.337-.252-.754-.378-1.252-.378-.514 0-.944.133-1.289.4a2.354 2.354 0 0 0-.772 1.076c-.17.45-.256.958-.256 1.523 0 .572.087 1.09.261 1.556.174.461.434.829.778 1.102.345.27.771.405 1.278.405Zm8.336 1.214a3.33 3.33 0 0 1-1.412-.293 2.393 2.393 0 0 1-1.001-.852c-.249-.373-.373-.825-.373-1.358 0-.469.091-.85.272-1.145.184-.295.429-.526.735-.693.309-.17.65-.298 1.023-.383.376-.086.756-.151 1.14-.197a85.75 85.75 0 0 1 1.203-.15c.309-.035.535-.094.677-.175.142-.082.213-.222.213-.421v-.043c0-.508-.14-.902-.421-1.182-.277-.28-.694-.421-1.252-.421-.582 0-1.038.128-1.369.383-.33.256-.562.531-.697.826l-1.284-.4c.202-.497.479-.889.831-1.177a3.247 3.247 0 0 1 1.177-.612 4.828 4.828 0 0 1 1.305-.181c.281 0 .595.033.943.1.351.068.687.2 1.007.395.323.192.589.48.799.863.213.383.319.893.319 1.529V67h-1.347v-1.108h-.064a2.211 2.211 0 0 1-.437.58 2.45 2.45 0 0 1-.794.507c-.327.138-.724.207-1.193.207Zm.24-1.171c.479 0 .886-.094 1.22-.283a1.942 1.942 0 0 0 1.017-1.688V62.92c-.053.06-.167.117-.341.17a5.09 5.09 0 0 1-.597.128 25.735 25.735 0 0 1-1.171.16c-.324.042-.622.11-.895.202a1.53 1.53 0 0 0-.661.416c-.167.18-.25.426-.25.735 0 .426.158.747.474.964.316.213.717.32 1.204.32Zm6.324 4.053a3.01 3.01 0 0 1-.591-.053 1.788 1.788 0 0 1-.373-.107l.336-1.166c.302.081.568.112.799.09a.976.976 0 0 0 .623-.293c.181-.177.345-.467.49-.868l.229-.607-3.02-8.246h1.465l2.205 6.467h.085l2.205-6.467h1.465l-3.446 9.343c-.153.426-.346.78-.581 1.06a2.22 2.22 0 0 1-.82.634 2.558 2.558 0 0 1-1.071.213Zm9.108-6.157v-.075c.007-.671.077-1.206.208-1.603.135-.402.323-.725.565-.97a4.69 4.69 0 0 1 .884-.682c.209-.128.398-.278.564-.452a1.93 1.93 0 0 0 .4-.597c.099-.227.149-.48.149-.756a1.588 1.588 0 0 0-.873-1.455 1.942 1.942 0 0 0-.89-.202c-.284 0-.558.06-.82.181a1.585 1.585 0 0 0-.661.56c-.174.252-.275.58-.303.985h-1.423c.025-.614.181-1.138.469-1.572a2.829 2.829 0 0 1 1.151-.99 3.667 3.667 0 0 1 1.592-.341c.632 0 1.183.124 1.652.373a2.68 2.68 0 0 1 1.097 1.022c.263.434.394.929.394 1.486 0 .395-.06.75-.181 1.066a2.65 2.65 0 0 1-.522.847c-.224.248-.492.47-.804.666a3.324 3.324 0 0 0-.746.607c-.188.21-.325.46-.41.75a4.091 4.091 0 0 0-.139 1.077v.075h-1.353Zm.719 3.18a.959.959 0 0 1-.697-.288.956.956 0 0 1-.293-.703.95.95 0 0 1 .293-.698.95.95 0 0 1 .697-.293c.27 0 .503.098.698.293a.954.954 0 0 1 .293.698.925.925 0 0 1-.138.495 1.06 1.06 0 0 1-.357.362.935.935 0 0 1-.496.134Z" style="fill:#bfa382;fill:color(display-p3 .749 .6392 .5098);fill-opacity:1"/><rect width="28" height="28" x="17" y="105" fill="#F8F2E9" rx="9" style="fill:#f8f2e9;fill:color(display-p3 .9725 .949 .9137);fill-opacity:1"/><path fill="#B09472" d="M30.25 118.25v-4.5h1.5v4.5h4.5v1.5h-4.5v4.5h-1.5v-4.5h-4.5v-1.5h4.5Z" style="fill:#b09472;fill:color(display-p3 .6902 .5804 .4471);fill-opacity:1"/><rect width="28" height="28" x="655" y="105" fill="#544737" rx="9" style="fill:#544737;fill:color(display-p3 .3294 .2784 .2157);fill-opacity:1"/><path fill="#F8F2E9" d="M669.75 115.871V125h-1.5v-9.129l-4.023 4.023-1.06-1.061L669 113l5.834 5.833-1.061 1.061-4.023-4.023Z" style="fill:#f8f2e9;fill:color(display-p3 .9725 .949 .9137);fill-opacity:1"/></g><defs><filter id="a" width="700" height="125" x="0" y="35" color-interpolation-filters="sRGB" filterUnits="userSpaceOnUse"><feFlood flood-opacity="0" result="BackgroundImageFix"/><feColorMatrix in="SourceAlpha" result="hardAlpha" values="0 0 0 0 0 0 0 0 0 0 0 0 0 0 0 0 0 0 127 0"/><feMorphology in="SourceAlpha" operator="dilate" radius="1" result="effect1_dropShadow_158_19500"/><feOffset/><feComposite in2="hardAlpha" operator="out"/><feColorMatrix values="0 0 0 0 0.0901961 0 0 0 0 0.0901961 0 0 0 0 0.0901961 0 0 0 0.02 0"/><feBlend in2="BackgroundImageFix" result="effect1_dropShadow_158_19500"/><feColorMatrix in="SourceAlpha" result="hardAlpha" values="0 0 0 0 0 0 0 0 0 0 0 0 0 0 0 0 0 0 127 0"/><feMorphology in="SourceAlpha" radius=".5" result="effect2_dropShadow_158_19500"/><feOffset dy="1"/><feGaussianBlur stdDeviation=".5"/><feComposite in2="hardAlpha" operator="out"/><feColorMatrix values="0 0 0 0 0.0901961 0 0 0 0 0.0901961 0 0 0 0 0.0901961 0 0 0 0.04 0"/><feBlend in2="effect1_dropShadow_158_19500" result="effect2_dropShadow_158_19500"/><feColorMatrix in="SourceAlpha" result="hardAlpha" values="0 0 0 0 0 0 0 0 0 0 0 0 0 0 0 0 0 0 127 0"/><feMorphology in="SourceAlpha" radius="1.5" result="effect3_dropShadow_158_19500"/><feOffset dy="3"/><feGaussianBlur stdDeviation="1.5"/><feComposite in2="hardAlpha" operator="out"/><feColorMatrix values="0 0 0 0 0.0901961 0 0 0 0 0.0901961 0 0 0 0 0.0901961 0 0 0 0.04 0"/><feBlend in2="effect2_dropShadow_158_19500" result="effect3_dropShadow_158_19500"/><feColorMatrix in="SourceAlpha" result="hardAlpha" values="0 0 0 0 0 0 0 0 0 0 0 0 0 0 0 0 0 0 127 0"/><feMorphology in="SourceAlpha" radius="3" result="effect4_dropShadow_158_19500"/><feOffset dy="6"/><feGaussianBlur stdDeviation="3"/><feComposite in2="hardAlpha" operator="out"/><feColorMatrix values="0 0 0 0 0.0901961 0 0 0 0 0.0901961 0 0 0 0 0.0901961 0 0 0 0.04 0"/><feBlend in2="effect3_dropShadow_158_19500" result="effect4_dropShadow_158_19500"/><feColorMatrix in="SourceAlpha" result="hardAlpha" values="0 0 0 0 0 0 0 0 0 0 0 0 0 0 0 0 0 0 127 0"/><feMorphology in="SourceAlpha" radius="5" result="effect5_dropShadow_158_19500"/><feOffset dy="10"/><feGaussianBlur stdDeviation="5"/><feComposite in2="hardAlpha" operator="out"/><feColorMatrix values="0 0 0 0 0.0901961 0 0 0 0 0.0901961 0 0 0 0 0.0901961 0 0 0 0.02 0"/><feBlend in2="effect4_dropShadow_158_19500" result="effect5_dropShadow_158_19500"/><feBlend in="SourceGraphic" in2="effect5_dropShadow_158_19500" result="shape"/></filter></defs></svg>