<svg xmlns="http://www.w3.org/2000/svg" width="1334" height="890" fill="none"><g clip-path="url(#a)"><path stroke="url(#b)" d="M1228.13 84.762c-23.39 0-42.35-18.974-42.35-42.381m42.35 42.381v-21.19m0 21.19c-11.7 0-21.18 9.49-21.18 21.19h-21.17m0-63.571h21.17c0 11.703 9.48 21.19 21.18 21.19m-42.35-21.19c0 23.405-18.96 42.381-42.35 42.381m42.35-42.381h-21.18c0 11.701-9.48 21.19-21.17 21.19m84.7 0c-23.39 0-42.35 18.977-42.35 42.381m63.52-63.571c0-11.704-9.48-21.19-21.17-21.19V0c23.38 0 42.35 18.973 42.35 42.38m-21.18 0h21.18m-21.18 0c0-23.405 18.96-42.38 42.35-42.38v21.19c-11.69 0-21.17 9.489-21.17 21.19m-21.18 63.571c0 11.702-9.48 21.191-21.17 21.191v21.19m21.17-42.381h21.18m-21.18 0c0 23.407 18.96 42.381 42.35 42.381m-63.52 0c23.39 0 42.35-18.976 42.35-42.381m-42.35 42.381c23.38 0 42.35 18.974 42.35 42.381m-42.35-42.381v21.191c11.69 0 21.17 9.487 21.17 21.19m21.18-84.762c0 11.704 9.48 21.191 21.17 21.191v21.19m-105.87-42.381h-21.18c0-11.703-9.48-21.19-21.17-21.19m42.35 21.19c0-23.407-18.96-42.38-42.35-42.38m148.22 0c11.7 0 21.18-9.49 21.18-21.191H1334c0 23.405-18.96 42.381-42.35 42.381m0-21.19v21.19m0-21.19c23.39 0 42.35 18.973 42.35 42.38h-21.17c0-11.703-9.49-21.19-21.18-21.19m0 63.571v21.191c-11.69 0-21.17 9.489-21.17 21.19m21.17-42.381c-23.39 0-42.35 18.976-42.35 42.381M1079.9 63.572c-11.69 0-21.17-9.488-21.17-21.191h-21.17m42.34 21.19v21.191m0-21.19c-23.38 0-42.34 18.976-42.34 42.38m0-63.571c0 23.407 18.96 42.381 42.34 42.381m-42.34-42.381c0 23.405-18.96 42.381-42.354 42.381m42.354-42.381h-21.18c0 11.701-9.48 21.19-21.174 21.19m84.694 21.191c-11.69 0-21.17 9.49-21.17 21.19h-21.17m63.52-63.571c0-11.704-9.48-21.19-21.18-21.19V0c23.39 0 42.35 18.974 42.35 42.381m-21.17 0h21.17m-21.17 0c0-23.405 18.96-42.38 42.35-42.38v21.19c-11.7 0-21.18 9.489-21.18 21.19m-21.17 63.571c0 11.702-9.48 21.191-21.18 21.191v21.19m21.18-42.381h21.17m-21.17 0c0 23.407 18.96 42.381 42.35 42.381m-63.53 0c23.39 0 42.35-18.976 42.35-42.381m-42.35 42.381c23.39 0 42.35 18.974 42.35 42.381m-42.35-42.381v21.191c11.7 0 21.18 9.487 21.18 21.19m21.17-84.762c0 11.704 9.49 21.191 21.18 21.191v21.19m-105.87-42.381h-21.18c0-11.703-9.48-21.19-21.174-21.19m42.354 21.19c0-23.407-18.97-42.38-42.354-42.38m148.224 0v21.19m0 63.571v21.191c-11.7 0-21.18 9.489-21.18 21.19m21.18-42.381c-23.39 0-42.35 18.976-42.35 42.381M931.683 63.572c-11.693 0-21.175-9.488-21.175-21.191h-21.175m42.35 21.19v21.191m0-21.19c-23.39 0-42.35 18.975-42.35 42.38m0-63.571c0 23.407 18.962 42.381 42.35 42.381m-42.35-42.381c0 23.405-18.959 42.381-42.349 42.381m42.349-42.381h-21.174c0 11.701-9.48 21.19-21.175 21.19m84.699 21.191c-11.695 0-21.175 9.489-21.175 21.19h-21.175m63.524-63.571c0-11.704-9.482-21.19-21.174-21.19V0c23.387 0 42.349 18.974 42.349 42.381m-21.175 0h21.175m-21.175 0C952.857 18.976 971.817 0 995.206 0v21.19c-11.694 0-21.174 9.49-21.174 21.191m-21.175 63.571c0 11.702-9.48 21.191-21.174 21.191v21.19m21.174-42.381h21.175m-21.175 0c0 23.407 18.962 42.381 42.349 42.381m-63.523 0c23.389 0 42.349-18.976 42.349-42.381m-42.349 42.381c23.387 0 42.349 18.974 42.349 42.381m-42.349-42.381v21.191c11.692 0 21.174 9.487 21.174 21.19m21.175-84.762c0 11.704 9.482 21.191 21.174 21.191v21.19m-105.873-42.381h-21.174c0-11.703-9.482-21.19-21.175-21.19m42.349 21.19c0-23.407-18.961-42.38-42.349-42.38m148.222 0v21.19m0 63.571v21.191c-11.694 0-21.174 9.489-21.174 21.19m21.174-42.381c-23.389 0-42.349 18.976-42.349 42.381m275.273 21.191c-11.7 0-21.18-9.487-21.18-21.191h-21.17m42.35 21.191v21.19m0-21.19c-23.39 0-42.35 18.976-42.35 42.381m0-63.572c0 23.407 18.96 42.381 42.35 42.381m-42.35-42.381c0 23.405-18.96 42.381-42.35 42.381m42.35-42.381h-21.18c0 11.702-9.48 21.191-21.17 21.191m84.7 21.19c-11.7 0-21.18 9.489-21.18 21.191h-21.17m63.52-63.572h21.18m-21.18 63.572c0 11.701-9.48 21.19-21.17 21.19v21.191m21.17-42.381h21.18m-21.18 0c0 23.407 18.96 42.381 42.35 42.381m-63.52 0c23.39 0 42.35-18.976 42.35-42.381m-42.35 42.381c23.38 0 42.35 18.974 42.35 42.381m-42.35-42.381v21.19c11.69 0 21.17 9.487 21.17 21.191m21.18-84.762c0 11.703 9.48 21.19 21.17 21.19v21.191m-105.87-42.381h-21.18c0-11.704-9.48-21.191-21.17-21.191m42.35 21.191c0-23.407-18.96-42.381-42.35-42.381m148.22 0c11.7 0 21.18-9.489 21.18-21.191H1334c0 23.405-18.96 42.381-42.35 42.381m0-21.19v21.19m0-21.19c23.39 0 42.35 18.974 42.35 42.381h-21.17c0-11.704-9.49-21.191-21.18-21.191m0 63.572v21.19c-11.69 0-21.17 9.489-21.17 21.191m21.17-42.381c-23.39 0-42.35 18.976-42.35 42.381m-169.4-127.143c-11.69 0-21.17-9.487-21.17-21.191h-21.17m42.34 21.191v21.19m0-21.19c-23.38 0-42.34 18.976-42.34 42.381m0-63.572c0 23.407 18.96 42.381 42.34 42.381m-42.34-42.381c0 23.405-18.96 42.381-42.354 42.381m42.354-42.381h-21.18c0 11.702-9.48 21.191-21.174 21.191m84.694 21.19c-11.69 0-21.17 9.489-21.17 21.191h-21.17m63.52-63.572h21.17m-21.17 63.572c0 11.701-9.48 21.19-21.18 21.19v21.191m21.18-42.381h21.17m-21.17 0c0 23.407 18.96 42.381 42.35 42.381m-63.53 0c23.39 0 42.35-18.976 42.35-42.381m-42.35 42.381c23.39 0 42.35 18.974 42.35 42.381m-42.35-42.381v21.19c11.7 0 21.18 9.487 21.18 21.191m21.17-84.762c0 11.703 9.49 21.19 21.18 21.19v21.191m-105.87-42.381h-21.18c0-11.704-9.48-21.191-21.174-21.191m42.354 21.191c0-23.407-18.97-42.381-42.354-42.381m148.224 0v21.19m0 63.572v21.19c-11.7 0-21.18 9.489-21.18 21.191m21.18-42.381c-23.39 0-42.35 18.976-42.35 42.381M931.683 211.905c-11.693 0-21.175-9.487-21.175-21.191h-21.175m42.35 21.191v21.19m0-21.19c-23.39 0-42.35 18.976-42.35 42.381m0-63.572c0 23.407 18.962 42.381 42.35 42.381m-42.35-42.381c0 23.405-18.959 42.381-42.349 42.381m42.349-42.381h-21.174c0 11.702-9.48 21.191-21.175 21.191m84.699 21.19c-11.695 0-21.175 9.489-21.175 21.191h-21.175m63.524-63.572h21.175m-21.175 63.572c0 11.701-9.48 21.19-21.174 21.19v21.191m21.174-42.381h21.175m-21.175 0c0 23.407 18.962 42.381 42.349 42.381m-63.523 0c23.389 0 42.349-18.976 42.349-42.381m-42.349 42.381c23.387 0 42.349 18.974 42.349 42.381m-42.349-42.381v21.19c11.692 0 21.174 9.487 21.174 21.191m21.175-84.762c0 11.703 9.482 21.19 21.174 21.19v21.191m-105.873-42.381h-21.174c0-11.704-9.482-21.191-21.175-21.191m42.349 21.191c0-23.407-18.962-42.381-42.349-42.381m148.222 0v21.19m0 63.572v21.19c-11.694 0-21.174 9.489-21.174 21.191m21.174-42.381c-23.389 0-42.349 18.976-42.349 42.381m275.273 21.19c-11.7 0-21.18-9.487-21.18-21.19h-21.17m42.35 21.19v21.191m0-21.191c-23.39 0-42.35 18.976-42.35 42.381m0-63.571c0 23.407 18.96 42.381 42.35 42.381m-42.35-42.381c0 23.405-18.96 42.381-42.35 42.381m42.35-42.381h-21.18c0 11.701-9.48 21.19-21.17 21.19m84.7 21.191c-11.7 0-21.18 9.489-21.18 21.19h-21.17m63.52-63.571h21.18m-21.18 63.571c0 11.702-9.48 21.191-21.17 21.191V445m21.17-42.381h21.18m-21.18 0c0 23.407 18.96 42.381 42.35 42.381m-63.52 0c23.39 0 42.35-18.976 42.35-42.381M1228.13 445c23.38 0 42.35 18.974 42.35 42.381M1228.13 445v21.191c11.69 0 21.17 9.487 21.17 21.19m21.18-84.762c0 11.704 9.48 21.191 21.17 21.191V445m-105.87-42.381h-21.18c0-11.703-9.48-21.19-21.17-21.19m42.35 21.19c0-23.407-18.96-42.381-42.35-42.381m148.22 0c11.7 0 21.18-9.489 21.18-21.19H1334c0 23.405-18.96 42.381-42.35 42.381m0-21.191v21.191m0-21.191c23.39 0 42.35 18.974 42.35 42.381h-21.17c0-11.703-9.49-21.19-21.18-21.19m0 63.571v21.191c-11.69 0-21.17 9.489-21.17 21.19M1291.65 445c-23.39 0-42.35 18.976-42.35 42.381m-169.4-127.143c-11.69 0-21.17-9.487-21.17-21.19h-21.17m42.34 21.19v21.191m0-21.191c-23.38 0-42.34 18.976-42.34 42.381m0-63.571c0 23.407 18.96 42.381 42.34 42.381m-42.34-42.381c0 23.405-18.96 42.381-42.354 42.381m42.354-42.381h-21.18c0 11.701-9.48 21.19-21.174 21.19m84.694 21.191c-11.69 0-21.17 9.489-21.17 21.19h-21.17m63.52-63.571h21.17m-21.17 63.571c0 11.702-9.48 21.191-21.18 21.191V445m21.18-42.381h21.17m-21.17 0c0 23.407 18.96 42.381 42.35 42.381m-63.53 0c23.39 0 42.35-18.976 42.35-42.381M1079.9 445c23.39 0 42.35 18.974 42.35 42.381M1079.9 445v21.191c11.7 0 21.18 9.487 21.18 21.19m21.17-84.762c0 11.704 9.49 21.191 21.18 21.191V445m-105.87-42.381h-21.18c0-11.703-9.48-21.19-21.174-21.19m42.354 21.19c0-23.407-18.97-42.381-42.354-42.381m148.224 0v21.191m0 63.571v21.191c-11.7 0-21.18 9.489-21.18 21.19M1143.43 445c-23.39 0-42.35 18.976-42.35 42.381M931.683 360.238c-11.693 0-21.175-9.487-21.175-21.19h-21.175m42.35 21.19v21.191m0-21.191c-23.39 0-42.35 18.976-42.35 42.381m0-63.571c0 23.407 18.962 42.381 42.35 42.381m-42.35-42.381c0 23.405-18.959 42.381-42.349 42.381m42.349-42.381h-21.174c0 11.701-9.48 21.19-21.175 21.19m84.699 21.191c-11.695 0-21.175 9.489-21.175 21.19h-21.175m63.524-63.571h21.175m-21.175 63.571c0 11.702-9.48 21.191-21.174 21.191V445m21.174-42.381h21.175m-21.175 0c0 23.407 18.962 42.381 42.349 42.381m-63.523 0c23.389 0 42.349-18.976 42.349-42.381M931.683 445c23.387 0 42.349 18.974 42.349 42.381M931.683 445v21.191c11.692 0 21.174 9.487 21.174 21.19m21.175-84.762c0 11.704 9.482 21.191 21.174 21.191V445m-105.873-42.381h-21.174c0-11.703-9.482-21.19-21.175-21.19m42.349 21.19c0-23.407-18.962-42.381-42.349-42.381m148.222 0v21.191m0 63.571v21.191c-11.694 0-21.174 9.489-21.174 21.19M995.206 445c-23.389 0-42.349 18.976-42.349 42.381m275.273 21.191c-11.7 0-21.18-9.487-21.18-21.191h-21.17m42.35 21.191v21.19m0-21.19c-23.39 0-42.35 18.976-42.35 42.38m0-63.571c0 23.407 18.96 42.381 42.35 42.381m-42.35-42.381c0 23.405-18.96 42.381-42.35 42.381m42.35-42.381h-21.18c0 11.701-9.48 21.191-21.17 21.191m84.7 21.19c-11.7 0-21.18 9.489-21.18 21.19h-21.17m63.52-63.571h21.18m-21.18 63.571c0 11.702-9.48 21.191-21.17 21.191v21.19m21.17-42.381h21.18m-21.18 0c0 23.407 18.96 42.381 42.35 42.381m-63.52 0c23.39 0 42.35-18.976 42.35-42.381m-42.35 42.381c23.38 0 42.35 18.974 42.35 42.381m-42.35-42.381v21.191c11.69 0 21.17 9.487 21.17 21.19m21.18-84.762c0 11.704 9.48 21.191 21.17 21.191v21.19m-105.87-42.381h-21.18c0-11.703-9.48-21.19-21.17-21.19m42.35 21.19c0-23.407-18.96-42.38-42.35-42.38m148.22 0c11.7 0 21.18-9.49 21.18-21.191H1334c0 23.405-18.96 42.381-42.35 42.381m0-21.19v21.19m0-21.19c23.39 0 42.35 18.973 42.35 42.38h-21.17c0-11.703-9.49-21.19-21.18-21.19m0 63.571v21.191c-11.69 0-21.17 9.489-21.17 21.19m21.17-42.381c-23.39 0-42.35 18.977-42.35 42.381m-169.4-127.142c-11.69 0-21.17-9.487-21.17-21.191h-21.17m42.34 21.191v21.19m0-21.19c-23.38 0-42.34 18.976-42.34 42.38m0-63.571c0 23.407 18.96 42.381 42.34 42.381m-42.34-42.381c0 23.405-18.96 42.381-42.354 42.381m42.354-42.381h-21.18c0 11.701-9.48 21.191-21.174 21.191m84.694 21.19c-11.69 0-21.17 9.489-21.17 21.19h-21.17m63.52-63.571h21.17m-21.17 63.571c0 11.702-9.48 21.191-21.18 21.191v21.19m21.18-42.381h21.17m-21.17 0c0 23.407 18.96 42.381 42.35 42.381m-63.53 0c23.39 0 42.35-18.976 42.35-42.381m-42.35 42.381c23.39 0 42.35 18.974 42.35 42.381m-42.35-42.381v21.191c11.7 0 21.18 9.487 21.18 21.19m21.17-84.762c0 11.704 9.49 21.191 21.18 21.191v21.19m-105.87-42.381h-21.18c0-11.703-9.48-21.19-21.174-21.19m42.354 21.19c0-23.407-18.97-42.38-42.354-42.38m148.224 0v21.19m0 63.571v21.191c-11.7 0-21.18 9.489-21.18 21.19m21.18-42.381c-23.39 0-42.35 18.977-42.35 42.381M931.683 508.572c-11.693 0-21.175-9.487-21.175-21.191h-21.175m42.35 21.191v21.19m0-21.19c-23.39 0-42.35 18.976-42.35 42.38m0-63.571c0 23.407 18.962 42.381 42.35 42.381m-42.35-42.381c0 23.405-18.959 42.381-42.349 42.381m42.349-42.381h-21.174c0 11.701-9.48 21.191-21.175 21.191m84.699 21.19c-11.695 0-21.175 9.489-21.175 21.19h-21.175m63.524-63.571h21.175m-21.175 63.571c0 11.702-9.48 21.191-21.174 21.191v21.19m21.174-42.381h21.175m-21.175 0c0 23.407 18.962 42.381 42.349 42.381m-63.523 0c23.389 0 42.349-18.976 42.349-42.381m-42.349 42.381c23.387 0 42.349 18.974 42.349 42.381m-42.349-42.381v21.191c11.692 0 21.174 9.487 21.174 21.19m21.175-84.762c0 11.704 9.482 21.191 21.174 21.191v21.19m-105.873-42.381h-21.174c0-11.703-9.482-21.19-21.175-21.19m42.349 21.19c0-23.407-18.962-42.38-42.349-42.38m148.222 0v21.19m0 63.571v21.191c-11.694 0-21.174 9.489-21.174 21.19m21.174-42.381c-23.389 0-42.349 18.976-42.349 42.381m275.273 21.191c-11.7 0-21.18-9.487-21.18-21.191h-21.17m42.35 21.191v21.19m0-21.19c-23.39 0-42.35 18.976-42.35 42.381m0-63.572c0 23.407 18.96 42.381 42.35 42.381m-42.35-42.381c0 23.405-18.96 42.381-42.35 42.381m42.35-42.381h-21.18c0 11.702-9.48 21.191-21.17 21.191m84.7 21.19c-11.7 0-21.18 9.489-21.18 21.191h-21.17m63.52-63.572h21.18m-21.18 63.572c0 11.701-9.48 21.19-21.17 21.19v21.191m21.17-42.381h21.18m-21.18 0c0 23.407 18.96 42.381 42.35 42.381m-63.52 0c23.39 0 42.35-18.976 42.35-42.381m-42.35 42.381c23.38 0 42.35 18.974 42.35 42.381m-42.35-42.381v21.19c11.69 0 21.17 9.487 21.17 21.191m21.18-84.762c0 11.703 9.48 21.19 21.17 21.19v21.191m-105.87-42.381h-21.18c0-11.704-9.48-21.191-21.17-21.191m42.35 21.191c0-23.407-18.96-42.381-42.35-42.381m148.22 0c11.7 0 21.18-9.489 21.18-21.191H1334c0 23.405-18.96 42.381-42.35 42.381m0-21.19v21.19m0-21.19c23.39 0 42.35 18.974 42.35 42.381h-21.17c0-11.704-9.49-21.191-21.18-21.191m0 63.572v21.19c-11.69 0-21.17 9.489-21.17 21.191m21.17-42.381c-23.39 0-42.35 18.976-42.35 42.381m-169.4-127.143c-11.69 0-21.17-9.487-21.17-21.191h-21.17m42.34 21.191v21.19m0-21.19c-23.38 0-42.34 18.976-42.34 42.381m0-63.572c0 23.407 18.96 42.381 42.34 42.381m-42.34-42.381c0 23.405-18.96 42.381-42.354 42.381m42.354-42.381h-21.18c0 11.702-9.48 21.191-21.174 21.191m84.694 21.19c-11.69 0-21.17 9.489-21.17 21.191h-21.17m63.52-63.572h21.17m-21.17 63.572c0 11.701-9.48 21.19-21.18 21.19v21.191m21.18-42.381h21.17m-21.17 0c0 23.407 18.96 42.381 42.35 42.381m-63.53 0c23.39 0 42.35-18.976 42.35-42.381m-42.35 42.381c23.39 0 42.35 18.974 42.35 42.381m-42.35-42.381v21.19c11.7 0 21.18 9.487 21.18 21.191m21.17-84.762c0 11.703 9.49 21.19 21.18 21.19v21.191m-105.87-42.381h-21.18c0-11.704-9.48-21.191-21.174-21.191m42.354 21.191c0-23.407-18.97-42.381-42.354-42.381m148.224 0v21.19m0 63.572v21.19c-11.7 0-21.18 9.489-21.18 21.191m21.18-42.381c-23.39 0-42.35 18.976-42.35 42.381M931.683 656.905c-11.693 0-21.175-9.487-21.175-21.191h-21.175m42.35 21.191v21.19m0-21.19c-23.39 0-42.35 18.976-42.35 42.381m0-63.572c0 23.407 18.962 42.381 42.35 42.381m-42.35-42.381c0 23.405-18.959 42.381-42.349 42.381m42.349-42.381h-21.174c0 11.702-9.48 21.191-21.175 21.191m84.699 21.19c-11.695 0-21.175 9.489-21.175 21.191h-21.175m63.524-63.572h21.175m-21.175 63.572c0 11.701-9.48 21.19-21.174 21.19v21.191m21.174-42.381h21.175m-21.175 0c0 23.407 18.962 42.381 42.349 42.381m-63.523 0c23.389 0 42.349-18.976 42.349-42.381m-42.349 42.381c23.387 0 42.349 18.974 42.349 42.381m-42.349-42.381v21.19c11.692 0 21.174 9.487 21.174 21.191m21.175-84.762c0 11.703 9.482 21.19 21.174 21.19v21.191m-105.873-42.381h-21.174c0-11.704-9.482-21.191-21.175-21.191m42.349 21.191c0-23.407-18.962-42.381-42.349-42.381m148.222 0v21.19m0 63.572v21.19c-11.694 0-21.174 9.489-21.174 21.191m21.174-42.381c-23.389 0-42.349 18.976-42.349 42.381m275.273 21.19c-11.7 0-21.18-9.487-21.18-21.19h-21.17m42.35 21.19v21.191m0-21.191c-23.39 0-42.35 18.976-42.35 42.381m0-63.571c0 23.407 18.96 42.381 42.35 42.381m-42.35-42.381c0 23.405-18.96 42.381-42.35 42.381m42.35-42.381h-21.18c0 11.701-9.48 21.19-21.17 21.19m84.7 21.191c-11.7 0-21.18 9.489-21.18 21.19h-21.17m63.52-63.571h21.18m-21.18 63.571c0 11.702-9.48 21.191-21.17 21.191V890c23.39 0 42.35-18.976 42.35-42.381m-21.18 0h21.18m-21.18 0c0 23.407 18.96 42.381 42.35 42.381v-21.19c-11.69 0-21.17-9.487-21.17-21.191m-84.7 0h-21.18c0-11.703-9.48-21.19-21.17-21.19m42.35 21.19c0-23.407-18.96-42.381-42.35-42.381m148.22 0c11.7 0 21.18-9.489 21.18-21.19H1334c0 23.405-18.96 42.381-42.35 42.381m0-21.191v21.191m0-21.191c23.39 0 42.35 18.974 42.35 42.381h-21.17c0-11.703-9.49-21.19-21.18-21.19m-211.75-21.191c-11.69 0-21.17-9.487-21.17-21.19h-21.17m42.34 21.19v21.191m0-21.191c-23.38 0-42.34 18.976-42.34 42.381m0-63.571c0 23.407 18.96 42.381 42.34 42.381m-42.34-42.381c0 23.405-18.96 42.381-42.354 42.381m42.354-42.381h-21.18c0 11.701-9.48 21.19-21.174 21.19m84.694 21.191c-11.69 0-21.17 9.489-21.17 21.19h-21.17m63.52-63.571h21.17m-21.17 63.571c0 11.702-9.48 21.191-21.18 21.191V890c23.39 0 42.35-18.976 42.35-42.381m-21.17 0h21.17m-21.17 0c0 23.407 18.96 42.381 42.35 42.381v-21.19c-11.69 0-21.18-9.487-21.18-21.191m-84.69 0h-21.18c0-11.703-9.48-21.19-21.174-21.19m42.354 21.19c0-23.407-18.97-42.381-42.354-42.381m148.224 0v21.191m-211.747-21.191c-11.693 0-21.175-9.487-21.175-21.19h-21.175m42.35 21.19v21.191m0-21.191c-23.39 0-42.35 18.976-42.35 42.381m0-63.571c0 23.407 18.962 42.381 42.35 42.381m-42.35-42.381c0 23.405-18.959 42.381-42.349 42.381m42.349-42.381h-21.174c0 11.701-9.48 21.19-21.175 21.19m84.699 21.191c-11.695 0-21.175 9.489-21.175 21.19h-21.175m63.524-63.571h21.175m-21.175 63.571c0 11.702-9.48 21.191-21.174 21.191V890c23.389 0 42.349-18.976 42.349-42.381m-21.175 0h21.175m-21.175 0c0 23.407 18.962 42.381 42.349 42.381v-21.19c-11.692 0-21.174-9.487-21.174-21.191m-84.699 0h-21.174c0-11.703-9.482-21.19-21.175-21.19m42.349 21.19c0-23.407-18.962-42.381-42.349-42.381m148.222 0v21.191M783.46 63.572c-11.692 0-21.174-9.488-21.174-21.191h-21.175m42.349 21.19v21.19m0-21.19c-23.389 0-42.349 18.977-42.349 42.381m0-63.571c0 23.407 18.962 42.38 42.349 42.38m-42.349-42.38c0 23.405-18.96 42.38-42.349 42.38m42.349-42.38h-21.174c0 11.701-9.48 21.19-21.175 21.19m84.698 21.19c-11.694 0-21.174 9.49-21.174 21.191h-21.175m63.524-63.571c0-11.704-9.482-21.19-21.175-21.19V0c23.388 0 42.35 18.974 42.35 42.381m-21.175 0h21.175m-21.175 0C804.635 18.976 823.595 0 846.984 0v21.19c-11.695 0-21.174 9.49-21.174 21.191m-21.175 63.571c0 11.702-9.48 21.191-21.175 21.191v21.19m21.175-42.381h21.175m-21.175 0c0 23.407 18.962 42.381 42.349 42.381m-63.524 0c23.39 0 42.35-18.976 42.35-42.381m-42.35 42.381c23.388 0 42.35 18.974 42.35 42.381m-42.35-42.381v21.191c11.693 0 21.175 9.487 21.175 21.19m21.175-84.762c0 11.704 9.482 21.191 21.174 21.191v21.19m-105.873-42.381h-21.174c0-11.703-9.482-21.19-21.175-21.19m42.349 21.19c0-23.407-18.962-42.38-42.349-42.38m148.222 0v21.19m0 63.571v21.191c-11.695 0-21.174 9.489-21.174 21.19m21.174-42.381c-23.389 0-42.349 18.976-42.349 42.381M635.238 63.572c-11.693 0-21.174-9.488-21.174-21.191h-21.175m42.349 21.19v21.19m0-21.19c-23.389 0-42.349 18.977-42.349 42.381m0-63.571c0 23.407 18.962 42.38 42.349 42.38m-42.349-42.38c0 23.405-18.96 42.38-42.349 42.38m42.349-42.38h-21.175c0 11.701-9.48 21.19-21.174 21.19m84.698 21.19c-11.695 0-21.174 9.49-21.174 21.191h-21.175m63.524-63.571c0-11.704-9.482-21.19-21.175-21.19V0c23.387 0 42.349 18.974 42.349 42.381m-21.174 0h21.174m-21.174 0C656.413 18.976 675.372 0 698.762 0v21.19c-11.695 0-21.175 9.49-21.175 21.191m-21.174 63.571c0 11.702-9.48 21.191-21.175 21.191v21.19m21.175-42.381h21.174m-21.174 0c0 23.407 18.962 42.381 42.349 42.381m-63.524 0c23.39 0 42.349-18.976 42.349-42.381m-42.349 42.381c23.387 0 42.349 18.974 42.349 42.381m-42.349-42.381v21.191c11.693 0 21.175 9.487 21.175 21.19m21.174-84.762c0 11.704 9.482 21.191 21.175 21.191v21.19m-105.873-42.381h-21.175c0-11.703-9.482-21.19-21.174-21.19m42.349 21.19c0-23.407-18.962-42.38-42.349-42.38m148.222 0v21.19m0 63.571v21.191c-11.695 0-21.175 9.489-21.175 21.19m21.175-42.381c-23.39 0-42.349 18.976-42.349 42.381M487.016 63.572c-11.693 0-21.175-9.488-21.175-21.191h-21.174m42.349 21.19v21.19m0-21.19c-23.39 0-42.349 18.977-42.349 42.381m0-63.571c0 23.407 18.962 42.38 42.349 42.38m-42.349-42.38c0 23.405-18.96 42.38-42.35 42.38m42.35-42.38h-21.175c0 11.701-9.48 21.19-21.175 21.19m84.699 21.19c-11.695 0-21.175 9.49-21.175 21.191h-21.174m63.523-63.571c0-11.704-9.481-21.19-21.174-21.19V0c23.387 0 42.349 18.974 42.349 42.381m-21.175 0h21.175m-21.175 0C508.19 18.976 527.15 0 550.54 0v21.19c-11.695 0-21.175 9.49-21.175 21.191m-21.175 63.571c0 11.702-9.479 21.191-21.174 21.191v21.19m21.174-42.381h21.175m-21.175 0c0 23.407 18.962 42.381 42.35 42.381m-63.524 0c23.389 0 42.349-18.976 42.349-42.381m-42.349 42.381c23.387 0 42.349 18.974 42.349 42.381m-42.349-42.381v21.191c11.692 0 21.174 9.487 21.174 21.19m21.175-84.762c0 11.704 9.482 21.191 21.175 21.191v21.19m-105.873-42.381h-21.175c0-11.703-9.482-21.19-21.175-21.19m42.35 21.19c0-23.407-18.962-42.38-42.35-42.38m148.223 0v21.19m0 63.571v21.191c-11.695 0-21.175 9.489-21.175 21.19m21.175-42.381c-23.39 0-42.35 18.976-42.35 42.381m275.27 21.191c-11.692 0-21.174-9.487-21.174-21.191h-21.175m42.349 21.191v21.19m0-21.19c-23.389 0-42.349 18.976-42.349 42.381m0-63.572c0 23.407 18.962 42.381 42.349 42.381m-42.349-42.381c0 23.405-18.96 42.381-42.349 42.381m42.349-42.381h-21.174c0 11.702-9.48 21.191-21.175 21.191m84.698 21.19c-11.694 0-21.174 9.489-21.174 21.191h-21.175m63.524-63.572h21.175m-21.175 63.572c0 11.701-9.48 21.19-21.175 21.19v21.191m21.175-42.381h21.175m-21.175 0c0 23.407 18.962 42.381 42.349 42.381m-63.524 0c23.39 0 42.35-18.976 42.35-42.381m-42.35 42.381c23.388 0 42.35 18.974 42.35 42.381m-42.35-42.381v21.19c11.693 0 21.175 9.487 21.175 21.191m21.175-84.762c0 11.703 9.482 21.19 21.174 21.19v21.191m-105.873-42.381h-21.174c0-11.704-9.482-21.191-21.175-21.191m42.349 21.191c0-23.407-18.962-42.381-42.349-42.381m148.222 0v21.19m0 63.572v21.19c-11.695 0-21.174 9.489-21.174 21.191m21.174-42.381c-23.389 0-42.349 18.976-42.349 42.381M635.238 211.905c-11.693 0-21.174-9.487-21.174-21.191h-21.175m42.349 21.191v21.19m0-21.19c-23.389 0-42.349 18.976-42.349 42.381m0-63.572c0 23.407 18.962 42.381 42.349 42.381m-42.349-42.381c0 23.405-18.96 42.381-42.349 42.381m42.349-42.381h-21.175c0 11.702-9.48 21.191-21.174 21.191m84.698 21.19c-11.695 0-21.174 9.489-21.174 21.191h-21.175m63.524-63.572h21.174m-21.174 63.572c0 11.701-9.48 21.19-21.175 21.19v21.191m21.175-42.381h21.174m-21.174 0c0 23.407 18.962 42.381 42.349 42.381m-63.524 0c23.39 0 42.349-18.976 42.349-42.381m-42.349 42.381c23.387 0 42.349 18.974 42.349 42.381m-42.349-42.381v21.19c11.693 0 21.175 9.487 21.175 21.191m21.174-84.762c0 11.703 9.482 21.19 21.175 21.19v21.191m-105.873-42.381h-21.175c0-11.704-9.482-21.191-21.174-21.191m42.349 21.191c0-23.407-18.962-42.381-42.349-42.381m148.222 0v21.19m0 63.572v21.19c-11.695 0-21.175 9.489-21.175 21.191m21.175-42.381c-23.39 0-42.349 18.976-42.349 42.381M487.016 211.905c-11.693 0-21.175-9.487-21.175-21.191h-21.174m42.349 21.191v21.19m0-21.19c-23.39 0-42.349 18.976-42.349 42.381m0-63.572c0 23.407 18.962 42.381 42.349 42.381m-42.349-42.381c0 23.405-18.96 42.381-42.35 42.381m42.35-42.381h-21.175c0 11.702-9.48 21.191-21.175 21.191m84.699 21.19c-11.695 0-21.175 9.489-21.175 21.191h-21.174m63.523-63.572h21.175m-21.175 63.572c0 11.701-9.479 21.19-21.174 21.19v21.191m21.174-42.381h21.175m-21.175 0c0 23.407 18.962 42.381 42.35 42.381m-63.524 0c23.389 0 42.349-18.976 42.349-42.381m-42.349 42.381c23.387 0 42.349 18.974 42.349 42.381m-42.349-42.381v21.19c11.692 0 21.174 9.487 21.174 21.191m21.175-84.762c0 11.703 9.482 21.19 21.175 21.19v21.191m-105.873-42.381h-21.175c0-11.704-9.482-21.191-21.175-21.191m42.35 21.191c0-23.407-18.962-42.381-42.35-42.381m148.223 0v21.19m0 63.572v21.19c-11.695 0-21.175 9.489-21.175 21.191m21.175-42.381c-23.39 0-42.35 18.976-42.35 42.381m275.27 21.19c-11.692 0-21.174-9.487-21.174-21.19h-21.175m42.349 21.19v21.191m0-21.191c-23.389 0-42.349 18.976-42.349 42.381m0-63.571c0 23.407 18.962 42.381 42.349 42.381m-42.349-42.381c0 23.405-18.96 42.381-42.349 42.381m42.349-42.381h-21.174c0 11.701-9.48 21.19-21.175 21.19m84.698 21.191c-11.694 0-21.174 9.489-21.174 21.19h-21.175m63.524-63.571h21.175m-21.175 63.571c0 11.702-9.48 21.191-21.175 21.191V445m21.175-42.381h21.175m-21.175 0c0 23.407 18.962 42.381 42.349 42.381m-63.524 0c23.39 0 42.35-18.976 42.35-42.381M783.46 445c23.388 0 42.35 18.974 42.35 42.381M783.46 445v21.191c11.693 0 21.175 9.487 21.175 21.19m21.175-84.762c0 11.704 9.482 21.191 21.174 21.191V445m-105.873-42.381h-21.174c0-11.703-9.482-21.19-21.175-21.19m42.349 21.19c0-23.407-18.962-42.381-42.349-42.381m148.222 0v21.191m0 63.571v21.191c-11.695 0-21.174 9.489-21.174 21.19M846.984 445c-23.389 0-42.349 18.976-42.349 42.381M635.238 360.238c-11.693 0-21.175-9.487-21.175-21.19h-21.174m42.349 21.19v21.191m0-21.191c-23.389 0-42.349 18.976-42.349 42.381m0-63.571c0 23.407 18.962 42.381 42.349 42.381m-42.349-42.381c0 23.405-18.96 42.381-42.349 42.381m42.349-42.381h-21.175c0 11.701-9.48 21.19-21.174 21.19m84.698 21.191c-11.695 0-21.175 9.489-21.175 21.19h-21.174m63.524-63.571h21.174m-21.174 63.571c0 11.701-9.48 21.191-21.175 21.191V445m21.175-42.381h21.174m-21.174 0c0 23.407 18.962 42.381 42.349 42.381m-63.524 0c23.39 0 42.349-18.976 42.349-42.381M635.238 445c23.387 0 42.349 18.974 42.349 42.381M635.238 445v21.191c11.693 0 21.175 9.487 21.175 21.19m21.174-84.762c0 11.704 9.482 21.191 21.175 21.191V445m-105.873-42.381h-21.175c0-11.703-9.482-21.19-21.174-21.19m42.349 21.19c0-23.407-18.962-42.381-42.349-42.381m148.222 0v21.191m0 63.571v21.191c-11.695 0-21.175 9.489-21.175 21.19M698.762 445c-23.39 0-42.349 18.976-42.349 42.381M487.016 360.238c-11.693 0-21.175-9.487-21.175-21.19h-21.174m42.349 21.19v21.191m0-21.191c-23.39 0-42.349 18.976-42.349 42.381m0-63.571c0 23.407 18.962 42.381 42.349 42.381m-42.349-42.381c0 23.405-18.96 42.381-42.35 42.381m42.35-42.381h-21.175c0 11.701-9.48 21.19-21.175 21.19m84.699 21.191c-11.695 0-21.175 9.489-21.175 21.19h-21.174m63.523-63.571h21.175m-21.175 63.571c0 11.701-9.479 21.191-21.174 21.191V445m21.174-42.381h21.175m-21.175 0c0 23.407 18.962 42.381 42.35 42.381m-63.524 0c23.389 0 42.349-18.976 42.349-42.381M487.016 445c23.387 0 42.349 18.974 42.349 42.381M487.016 445v21.191c11.692 0 21.174 9.487 21.174 21.19m21.175-84.762c0 11.704 9.482 21.191 21.175 21.191V445m-105.873-42.381h-21.175c0-11.703-9.482-21.19-21.175-21.19m42.35 21.19c0-23.407-18.962-42.381-42.35-42.381m148.223 0v21.191m0 63.571v21.191c-11.695 0-21.175 9.489-21.175 21.19M550.54 445c-23.39 0-42.35 18.976-42.35 42.381m275.27 21.191c-11.692 0-21.174-9.487-21.174-21.191h-21.175m42.349 21.191v21.19m0-21.19c-23.389 0-42.349 18.976-42.349 42.38m0-63.571c0 23.407 18.962 42.381 42.349 42.381m-42.349-42.381c0 23.405-18.96 42.381-42.349 42.381m42.349-42.381h-21.174c0 11.701-9.48 21.191-21.175 21.191m84.698 21.19c-11.694 0-21.174 9.489-21.174 21.19h-21.175m63.524-63.571h21.175m-21.175 63.571c0 11.702-9.48 21.191-21.175 21.191v21.19m21.175-42.381h21.175m-21.175 0c0 23.407 18.962 42.381 42.349 42.381m-63.524 0c23.39 0 42.35-18.976 42.35-42.381m-42.35 42.381c23.388 0 42.35 18.974 42.35 42.381m-42.35-42.381v21.191c11.693 0 21.175 9.487 21.175 21.19m21.175-84.762c0 11.704 9.482 21.191 21.174 21.191v21.19m-105.873-42.381h-21.174c0-11.703-9.482-21.19-21.175-21.19m42.349 21.19c0-23.407-18.962-42.38-42.349-42.38m148.222 0v21.19m0 63.571v21.191c-11.695 0-21.174 9.489-21.174 21.19m21.174-42.381c-23.389 0-42.349 18.976-42.349 42.381M635.238 508.572c-11.693-.001-21.175-9.487-21.175-21.191h-21.174m42.349 21.191v21.19m0-21.19c-23.389-.001-42.349 18.976-42.349 42.38m0-63.571c0 23.407 18.962 42.381 42.349 42.381m-42.349-42.381c0 23.405-18.96 42.381-42.349 42.381m42.349-42.381h-21.175c0 11.701-9.48 21.19-21.174 21.19m84.698 21.191c-11.695 0-21.175 9.489-21.175 21.19h-21.174m63.524-63.571h21.174m-21.174 63.571c0 11.702-9.48 21.191-21.175 21.191v21.19m21.175-42.381h21.174m-21.174 0c0 23.407 18.962 42.381 42.349 42.381m-63.524 0c23.39 0 42.349-18.976 42.349-42.381m-42.349 42.381c23.387 0 42.349 18.974 42.349 42.381m-42.349-42.381v21.191c11.693 0 21.175 9.487 21.175 21.19m21.174-84.762c0 11.704 9.482 21.191 21.175 21.191v21.19m-105.873-42.381h-21.175c0-11.703-9.482-21.19-21.174-21.19m42.349 21.19c0-23.407-18.962-42.381-42.349-42.381m148.222.001v21.19m0 63.571v21.191c-11.695 0-21.175 9.489-21.175 21.19m21.175-42.381c-23.39 0-42.349 18.976-42.349 42.381M487.016 508.571c-11.693 0-21.175-9.486-21.175-21.19h-21.174m42.349 21.19v21.191m0-21.191c-23.39 0-42.349 18.977-42.349 42.381m0-63.571c0 23.407 18.962 42.381 42.349 42.381m-42.349-42.381c0 23.405-18.96 42.381-42.35 42.381m42.35-42.381h-21.175c0 11.701-9.48 21.19-21.175 21.19m84.699 21.191c-11.695 0-21.175 9.489-21.175 21.19h-21.174m63.523-63.571h21.175m-21.175 63.571c0 11.702-9.479 21.191-21.174 21.191v21.19m21.174-42.381h21.175m-21.175 0c0 23.407 18.962 42.381 42.35 42.381m-63.524 0c23.389 0 42.349-18.976 42.349-42.381m-42.349 42.381c23.387 0 42.349 18.974 42.349 42.381m-42.349-42.381v21.191c11.692 0 21.174 9.487 21.174 21.19m21.175-84.762c0 11.704 9.482 21.191 21.175 21.191v21.19m-105.873-42.381h-21.175c0-11.703-9.482-21.19-21.175-21.19m42.35 21.19c0-23.407-18.962-42.381-42.35-42.381m148.223 0v21.191m0 63.571v21.191c-11.695 0-21.175 9.489-21.175 21.19m21.175-42.381c-23.39 0-42.35 18.976-42.35 42.381m275.27 21.191c-11.692 0-21.174-9.487-21.174-21.191h-21.175m42.349 21.191v21.19m0-21.19c-23.389 0-42.349 18.976-42.349 42.381m0-63.572c0 23.407 18.962 42.381 42.349 42.381m-42.349-42.381c0 23.405-18.96 42.381-42.349 42.381m42.349-42.381h-21.174c0 11.702-9.48 21.191-21.175 21.191m84.698 21.19c-11.694 0-21.174 9.489-21.174 21.191h-21.175m63.524-63.572h21.175m-21.175 63.572c0 11.701-9.48 21.19-21.175 21.19v21.191m21.175-42.381h21.175m-21.175 0c0 23.407 18.962 42.381 42.349 42.381m-63.524 0c23.39 0 42.35-18.976 42.35-42.381m-42.35 42.381c23.388 0 42.35 18.974 42.35 42.381m-42.35-42.381v21.19c11.693 0 21.175 9.487 21.175 21.191m21.175-84.762c0 11.703 9.482 21.19 21.174 21.19v21.191m-105.873-42.381h-21.174c0-11.704-9.482-21.191-21.175-21.191m42.349 21.191c0-23.407-18.962-42.381-42.349-42.381m148.222 0v21.19m0 63.572v21.19c-11.695 0-21.174 9.489-21.174 21.191m21.174-42.381c-23.389 0-42.349 18.976-42.349 42.381M635.238 656.905c-11.693 0-21.175-9.487-21.175-21.191h-21.174m42.349 21.191v21.19m0-21.19c-23.389 0-42.349 18.976-42.349 42.381m0-63.572c0 23.407 18.962 42.381 42.349 42.381m-42.349-42.381c0 23.405-18.96 42.381-42.349 42.381m42.349-42.381h-21.175c0 11.702-9.48 21.191-21.174 21.191m84.698 21.19c-11.695 0-21.175 9.489-21.175 21.191h-21.174m63.524-63.572h21.174m-21.174 63.572c0 11.701-9.48 21.19-21.175 21.19v21.191m21.175-42.381h21.174m-21.174 0c0 23.407 18.962 42.381 42.349 42.381m-63.524 0c23.39 0 42.349-18.976 42.349-42.381m-42.349 42.381c23.387 0 42.349 18.974 42.349 42.381m-42.349-42.381v21.19c11.693 0 21.175 9.487 21.175 21.191m21.174-84.762c0 11.703 9.482 21.19 21.175 21.19v21.191m-105.873-42.381h-21.175c0-11.704-9.482-21.191-21.174-21.191m42.349 21.191c0-23.407-18.962-42.381-42.349-42.381m148.222 0v21.19m0 63.572v21.19c-11.695 0-21.175 9.489-21.175 21.191m21.175-42.381c-23.39 0-42.349 18.976-42.349 42.381M487.016 656.905c-11.693 0-21.175-9.487-21.175-21.191h-21.174m42.349 21.191v21.19m0-21.19c-23.39 0-42.349 18.976-42.349 42.381m0-63.572c0 23.407 18.962 42.381 42.349 42.381m-42.349-42.381c0 23.405-18.96 42.381-42.35 42.381m42.35-42.381h-21.175c0 11.702-9.48 21.191-21.175 21.191m84.699 21.19c-11.695 0-21.175 9.489-21.175 21.191h-21.174m63.523-63.572h21.175m-21.175 63.572c0 11.701-9.479 21.19-21.174 21.19v21.191m21.174-42.381h21.175m-21.175 0c0 23.407 18.962 42.381 42.35 42.381m-63.524 0c23.389 0 42.349-18.976 42.349-42.381m-42.349 42.381c23.387 0 42.349 18.974 42.349 42.381m-42.349-42.381v21.19c11.692 0 21.174 9.487 21.174 21.191m21.175-84.762c0 11.703 9.482 21.19 21.175 21.19v21.191m-105.873-42.381h-21.175c0-11.704-9.482-21.191-21.175-21.191m42.35 21.191c0-23.407-18.962-42.381-42.35-42.381m148.223 0v21.19m0 63.572v21.19c-11.695 0-21.175 9.489-21.175 21.191m21.175-42.381c-23.39 0-42.35 18.976-42.35 42.381m275.27 21.19c-11.692 0-21.174-9.487-21.174-21.19h-21.175m42.349 21.19v21.191m0-21.191c-23.389 0-42.349 18.976-42.349 42.381m0-63.571c0 23.407 18.962 42.381 42.349 42.381m-42.349-42.381c0 23.405-18.96 42.381-42.349 42.381m42.349-42.381h-21.175c0 11.701-9.479 21.19-21.174 21.19m84.698 21.191c-11.694 0-21.174 9.489-21.174 21.19h-21.175m63.524-63.571h21.175m-21.175 63.571c0 11.702-9.48 21.191-21.175 21.191V890c23.39 0 42.35-18.976 42.35-42.381m-21.175 0h21.175m-21.175 0c0 23.407 18.962 42.381 42.349 42.381v-21.19c-11.693 0-21.174-9.487-21.174-21.191m-84.699 0h-21.175c0-11.703-9.481-21.19-21.174-21.19m42.349 21.19c0-23.407-18.962-42.381-42.349-42.381m148.222 0v21.191m-211.746-21.191c-11.693 0-21.175-9.487-21.175-21.19h-21.174m42.349 21.19v21.191m0-21.191c-23.389 0-42.349 18.976-42.349 42.381m0-63.571c0 23.407 18.962 42.381 42.349 42.381m-42.349-42.381c0 23.405-18.96 42.381-42.349 42.381m42.349-42.381h-21.175c0 11.701-9.48 21.19-21.174 21.19m84.698 21.191c-11.695 0-21.175 9.489-21.175 21.19h-21.174m63.524-63.571h21.174m-21.174 63.571c0 11.702-9.48 21.191-21.175 21.191V890c23.39 0 42.349-18.976 42.349-42.381m-21.174 0h21.174m-21.174 0c0 23.407 18.962 42.381 42.349 42.381v-21.19c-11.693 0-21.175-9.487-21.175-21.191m-84.698 0h-21.175c0-11.703-9.482-21.19-21.174-21.19m42.349 21.19c0-23.407-18.962-42.381-42.349-42.381m148.222 0v21.191m-211.746-21.191c-11.693 0-21.175-9.487-21.175-21.19h-21.174m42.349 21.19v21.191m0-21.191c-23.39 0-42.349 18.976-42.349 42.381m0-63.571c0 23.407 18.962 42.381 42.349 42.381m-42.349-42.381c0 23.405-18.96 42.381-42.35 42.381m42.35-42.381h-21.175c0 11.701-9.48 21.19-21.175 21.19m84.699 21.191c-11.695 0-21.175 9.489-21.175 21.19h-21.174m63.523-63.571h21.175m-21.175 63.571c0 11.702-9.479 21.191-21.174 21.191V890c23.389 0 42.349-18.976 42.349-42.381m-21.175 0h21.175m-21.175 0c0 23.407 18.962 42.381 42.35 42.381v-21.19c-11.693 0-21.175-9.487-21.175-21.191m-84.698 0h-21.175c0-11.703-9.482-21.19-21.175-21.19m42.35 21.19c0-23.407-18.962-42.381-42.35-42.381m148.223 0v21.191M338.794 63.572c-11.693 0-21.175-9.488-21.175-21.191h-21.175m42.35 21.19v21.19m0-21.19c-23.39 0-42.35 18.977-42.35 42.381m0-63.571c0 23.407 18.962 42.38 42.35 42.38m-42.35-42.38c0 23.405-18.959 42.38-42.349 42.38m42.349-42.38H275.27c0 11.701-9.48 21.19-21.175 21.19m84.699 21.19c-11.695 0-21.175 9.49-21.175 21.191h-21.175m63.524-63.571c0-11.704-9.482-21.19-21.174-21.19V0c23.387 0 42.349 18.974 42.349 42.381m-21.175 0h21.175m-21.175 0C359.968 18.976 378.928 0 402.317 0v21.19c-11.694 0-21.174 9.49-21.174 21.191m-21.175 63.571c0 11.702-9.48 21.191-21.174 21.191v21.19m21.174-42.381h21.175m-21.175 0c0 23.407 18.962 42.381 42.349 42.381m-63.523 0c23.389 0 42.349-18.976 42.349-42.381m-42.349 42.381c23.387 0 42.349 18.974 42.349 42.381m-42.349-42.381v21.191c11.692 0 21.174 9.487 21.174 21.19m21.175-84.762c0 11.704 9.482 21.191 21.174 21.191v21.19m-105.873-42.381H275.27c0-11.703-9.482-21.19-21.175-21.19m42.349 21.19c0-23.407-18.961-42.38-42.349-42.38m148.222 0v21.19m0 63.571v21.191c-11.694 0-21.174 9.489-21.174 21.19m21.174-42.381c-23.389 0-42.349 18.976-42.349 42.381M190.571 63.571c-11.692 0-21.174-9.486-21.174-21.19h-21.175m42.349 21.19v21.19m0-21.19c-23.389 0-42.349 18.977-42.349 42.381m0-63.571c0 23.407 18.962 42.38 42.349 42.38m-42.349-42.38c0 23.405-18.96 42.38-42.349 42.38m42.349-42.38h-21.174c0 11.701-9.48 21.19-21.175 21.19m84.698 21.19c-11.694 0-21.174 9.49-21.174 21.191h-21.175m63.524-63.571c0-11.704-9.482-21.19-21.175-21.19V0c23.388 0 42.35 18.974 42.35 42.381m-21.175 0h21.175m-21.175 0C211.746 18.976 230.706 0 254.095 0v21.19c-11.694 0-21.174 9.49-21.174 21.191m-21.175 63.571c0 11.702-9.48 21.191-21.175 21.191v21.19m21.175-42.381h21.175m-21.175 0c0 23.407 18.962 42.381 42.349 42.381m-63.524 0c23.39 0 42.35-18.976 42.35-42.381m-42.35 42.381c23.388 0 42.35 18.974 42.35 42.381m-42.35-42.381v21.191c11.693 0 21.175 9.487 21.175 21.19m21.175-84.762c0 11.704 9.482 21.191 21.174 21.191v21.19m-105.873-42.381h-21.174c0-11.703-9.482-21.19-21.175-21.19m42.349 21.19c0-23.407-18.962-42.38-42.349-42.38m148.222 0v21.19m0 63.571v21.191c-11.694 0-21.174 9.489-21.174 21.19m21.174-42.381c-23.389 0-42.349 18.976-42.349 42.381M42.349 63.571c-11.692 0-21.174-9.486-21.174-21.19H0c0 23.407 18.962 42.38 42.35 42.38m0-21.19v21.19m0-21.19C18.96 63.571 0 82.548 0 105.952h21.175c0-11.701 9.48-21.19 21.174-21.19M63.524 42.38c0-11.704-9.482-21.19-21.175-21.19V0C65.737 0 84.7 18.974 84.7 42.381m-21.175 0h21.174m-21.174 0C63.524 18.976 82.484 0 105.873 0v21.19c-11.695 0-21.175 9.49-21.175 21.191m-21.174 63.571c0 11.702-9.48 21.191-21.175 21.191v21.19m21.175-42.381h21.174m-21.174 0c0 23.407 18.962 42.381 42.349 42.381m-63.524 0c23.39 0 42.35-18.976 42.35-42.381m-42.35 42.381c23.388 0 42.35 18.974 42.35 42.381m-42.35-42.381v21.191c11.693 0 21.175 9.487 21.175 21.19m21.174-84.762c0 11.704 9.482 21.191 21.175 21.191v21.19m0-84.762v21.19m0 63.572v21.191c-11.695 0-21.175 9.489-21.175 21.19m21.175-42.381c-23.39 0-42.35 18.976-42.35 42.381m275.271 21.191c-11.693 0-21.175-9.487-21.175-21.191h-21.175m42.35 21.191v21.19m0-21.19c-23.39 0-42.35 18.976-42.35 42.381m0-63.572c0 23.407 18.962 42.381 42.35 42.381m-42.35-42.381c0 23.405-18.959 42.381-42.349 42.381m42.349-42.381H275.27c0 11.702-9.48 21.191-21.175 21.191m84.699 21.19c-11.695 0-21.175 9.489-21.175 21.191h-21.175m63.524-63.572h21.175m-21.175 63.572c0 11.701-9.48 21.19-21.174 21.19v21.191m21.174-42.381h21.175m-21.175 0c0 23.407 18.962 42.381 42.349 42.381m-63.523 0c23.389 0 42.349-18.976 42.349-42.381m-42.349 42.381c23.387 0 42.349 18.974 42.349 42.381m-42.349-42.381v21.19c11.692 0 21.174 9.487 21.174 21.191m21.175-84.762c0 11.703 9.482 21.19 21.174 21.19v21.191m-105.873-42.381H275.27c0-11.704-9.482-21.191-21.175-21.191m42.349 21.191c0-23.407-18.961-42.381-42.349-42.381m148.222 0v21.19m0 63.572v21.19c-11.694 0-21.174 9.489-21.174 21.191m21.174-42.381c-23.389 0-42.349 18.976-42.349 42.381M190.571 211.905c-11.692 0-21.174-9.487-21.174-21.191h-21.175m42.349 21.191v21.19m0-21.19c-23.389 0-42.349 18.976-42.349 42.381m0-63.572c0 23.407 18.962 42.381 42.349 42.381m-42.349-42.381c0 23.405-18.96 42.381-42.349 42.381m42.349-42.381h-21.174c0 11.702-9.48 21.191-21.175 21.191m84.698 21.19c-11.694 0-21.174 9.489-21.174 21.191h-21.175m63.524-63.572h21.175m-21.175 63.572c0 11.701-9.48 21.19-21.175 21.19v21.191m21.175-42.381h21.175m-21.175 0c0 23.407 18.962 42.381 42.349 42.381m-63.524 0c23.39 0 42.35-18.976 42.35-42.381m-42.35 42.381c23.388 0 42.35 18.974 42.35 42.381m-42.35-42.381v21.19c11.693 0 21.175 9.487 21.175 21.191m21.175-84.762c0 11.703 9.482 21.19 21.174 21.19v21.191m-105.873-42.381h-21.174c0-11.704-9.482-21.191-21.175-21.191m42.349 21.191c0-23.407-18.962-42.381-42.349-42.381m148.222 0v21.19m0 63.572v21.19c-11.694 0-21.174 9.489-21.174 21.191m21.174-42.381c-23.389 0-42.349 18.976-42.349 42.381M42.349 211.905c-11.692 0-21.174-9.487-21.174-21.191H0c0 23.407 18.962 42.381 42.35 42.381m0-21.19v21.19m0-21.19C18.96 211.905 0 230.881 0 254.286h21.175c0-11.702 9.48-21.191 21.174-21.191m21.175-42.381h21.174m-21.174 63.572c0 11.701-9.48 21.19-21.175 21.19v21.191m21.175-42.381h21.174m-21.174 0c0 23.407 18.962 42.381 42.349 42.381m-63.524 0c23.39 0 42.35-18.976 42.35-42.381m-42.35 42.381c23.388 0 42.35 18.974 42.35 42.381m-42.35-42.381v21.19c11.693 0 21.175 9.487 21.175 21.191m21.174-84.762c0 11.703 9.482 21.19 21.175 21.19v21.191m0-84.762v21.19m0 63.572v21.19c-11.695 0-21.175 9.489-21.175 21.191m21.175-42.381c-23.39 0-42.35 18.976-42.35 42.381m275.271 21.19c-11.693 0-21.175-9.487-21.175-21.19h-21.175m42.35 21.19v21.191m0-21.191c-23.39 0-42.35 18.976-42.35 42.381m0-63.571c0 23.407 18.962 42.381 42.35 42.381m-42.35-42.381c0 23.405-18.959 42.381-42.349 42.381m42.349-42.381H275.27c0 11.701-9.48 21.19-21.175 21.19m84.699 21.191c-11.695 0-21.175 9.489-21.175 21.19h-21.175m63.524-63.571h21.175m-21.175 63.571c0 11.701-9.48 21.191-21.174 21.191V445m21.174-42.381h21.175m-21.175 0c0 23.407 18.962 42.381 42.349 42.381m-63.523 0c23.389 0 42.349-18.976 42.349-42.381M338.794 445c23.387 0 42.349 18.974 42.349 42.381M338.794 445v21.191c11.692 0 21.174 9.487 21.174 21.19m21.175-84.762c0 11.704 9.482 21.191 21.174 21.191V445m-105.873-42.381H275.27c0-11.703-9.482-21.19-21.175-21.19m42.349 21.19c0-23.407-18.961-42.381-42.349-42.381m148.222 0v21.191m0 63.571v21.191c-11.694 0-21.174 9.489-21.174 21.19M402.317 445c-23.389 0-42.349 18.976-42.349 42.381M190.571 360.238c-11.692 0-21.174-9.487-21.174-21.19h-21.175m42.349 21.19v21.191m0-21.191c-23.389 0-42.349 18.976-42.349 42.381m0-63.571c0 23.407 18.962 42.381 42.349 42.381m-42.349-42.381c0 23.405-18.96 42.381-42.349 42.381m42.349-42.381h-21.174c0 11.701-9.48 21.19-21.175 21.19m84.698 21.191c-11.694 0-21.174 9.489-21.174 21.19h-21.175m63.524-63.571h21.175m-21.175 63.571c0 11.701-9.48 21.191-21.175 21.191V445m21.175-42.381h21.175m-21.175 0c0 23.407 18.962 42.381 42.349 42.381m-63.524 0c23.39 0 42.35-18.976 42.35-42.381M190.571 445c23.388 0 42.35 18.974 42.35 42.381M190.571 445v21.191c11.693 0 21.175 9.487 21.175 21.19m21.175-84.762c0 11.704 9.482 21.191 21.174 21.191V445m-105.873-42.381h-21.174c0-11.703-9.482-21.19-21.175-21.19m42.349 21.19c0-23.407-18.962-42.381-42.349-42.381m148.222 0v21.191m0 63.571v21.191c-11.695 0-21.174 9.489-21.174 21.19M254.095 445c-23.389 0-42.349 18.976-42.349 42.381M42.349 360.238c-11.692 0-21.174-9.487-21.174-21.19H0c0 23.407 18.962 42.381 42.35 42.381m0-21.191v21.191m0-21.191C18.96 360.238 0 379.214 0 402.619h21.175c0-11.701 9.48-21.19 21.174-21.19m21.175-42.381h21.174m-21.174 63.571c0 11.701-9.48 21.191-21.175 21.191V445m21.175-42.381h21.174m-21.174 0c0 23.407 18.962 42.381 42.349 42.381m-63.524 0c23.39 0 42.35-18.976 42.35-42.381M42.348 445c23.388 0 42.35 18.974 42.35 42.381M42.348 445v21.191c11.693 0 21.175 9.486 21.175 21.19m21.174-84.762c0 11.704 9.482 21.191 21.175 21.191V445m0-84.762v21.191m0 63.571v21.191c-11.695 0-21.175 9.489-21.175 21.19M105.873 445c-23.39 0-42.35 18.976-42.35 42.381m275.271 21.19c-11.693 0-21.175-9.486-21.175-21.19h-21.175m42.35 21.19v21.191m0-21.191c-23.39 0-42.35 18.977-42.35 42.381m0-63.571c0 23.407 18.962 42.381 42.35 42.381m-42.35-42.381c0 23.405-18.959 42.381-42.349 42.381m42.349-42.381H275.27c0 11.701-9.48 21.19-21.175 21.19m84.699 21.191c-11.695 0-21.175 9.489-21.175 21.19h-21.175m63.524-63.571h21.175m-21.175 63.571c0 11.702-9.48 21.191-21.174 21.191v21.19m21.174-42.381h21.175m-21.175 0c0 23.407 18.962 42.381 42.349 42.381m-63.523 0c23.389 0 42.349-18.976 42.349-42.381m-42.349 42.381c23.387 0 42.349 18.974 42.349 42.381m-42.349-42.381v21.191c11.692 0 21.174 9.487 21.174 21.19m21.175-84.762c0 11.704 9.482 21.191 21.174 21.191v21.19m-105.873-42.381H275.27c0-11.703-9.482-21.19-21.175-21.19m42.349 21.19c0-23.407-18.961-42.381-42.349-42.381m148.222 0v21.191m0 63.571v21.191c-11.694 0-21.174 9.489-21.174 21.19m21.174-42.381c-23.389 0-42.349 18.976-42.349 42.381M190.571 508.571c-11.692 0-21.174-9.486-21.174-21.19h-21.175m42.349 21.19v21.191m0-21.191c-23.389 0-42.349 18.977-42.349 42.381m0-63.571c0 23.407 18.962 42.381 42.349 42.381m-42.349-42.381c0 23.405-18.96 42.381-42.349 42.381m42.349-42.381h-21.174c0 11.701-9.48 21.19-21.175 21.19m84.698 21.191c-11.694 0-21.174 9.489-21.174 21.19h-21.175m63.524-63.571h21.175m-21.175 63.571c0 11.702-9.48 21.191-21.175 21.191v21.19m21.175-42.381h21.175m-21.175 0c0 23.407 18.962 42.381 42.349 42.381m-63.524 0c23.39 0 42.35-18.976 42.35-42.381m-42.35 42.381c23.388 0 42.35 18.974 42.35 42.381m-42.35-42.381v21.191c11.693 0 21.175 9.487 21.175 21.19m21.175-84.762c0 11.704 9.482 21.191 21.174 21.191v21.19m-105.873-42.381h-21.174c0-11.703-9.482-21.19-21.175-21.19m42.349 21.19c0-23.407-18.962-42.381-42.349-42.381m148.222 0v21.191m0 63.571v21.191c-11.695 0-21.174 9.489-21.174 21.19m21.174-42.381c-23.389 0-42.349 18.976-42.349 42.381M42.349 508.571c-11.692 0-21.174-9.487-21.174-21.19H0c0 23.407 18.962 42.381 42.35 42.381m0-21.191v21.191m0-21.191C18.96 508.571 0 527.548 0 550.952h21.175c0-11.701 9.48-21.19 21.174-21.19m21.175-42.381h21.174m-21.174 63.571c0 11.702-9.48 21.191-21.175 21.191v21.19m21.175-42.381h21.174m-21.174 0c0 23.407 18.962 42.381 42.349 42.381m-63.524 0c23.39 0 42.35-18.976 42.35-42.381m-42.35 42.381c23.388 0 42.35 18.974 42.35 42.381m-42.35-42.381v21.191c11.693 0 21.175 9.487 21.175 21.19m21.174-84.762c0 11.704 9.482 21.191 21.175 21.191v21.19m0-84.762v21.191m0 63.571v21.191c-11.695 0-21.175 9.489-21.175 21.19m21.175-42.381c-23.39 0-42.35 18.976-42.35 42.381m275.271 21.191c-11.693 0-21.175-9.487-21.175-21.191h-21.175m42.35 21.191v21.19m0-21.19c-23.39 0-42.35 18.976-42.35 42.381m0-63.572c0 23.407 18.962 42.381 42.35 42.381m-42.35-42.381c0 23.405-18.959 42.381-42.349 42.381m42.349-42.381H275.27c0 11.702-9.48 21.191-21.175 21.191m84.699 21.19c-11.695 0-21.175 9.489-21.175 21.191h-21.175m63.524-63.572h21.175m-21.175 63.572c0 11.701-9.48 21.19-21.174 21.19v21.191m21.174-42.381h21.175m-21.175 0c0 23.407 18.962 42.381 42.349 42.381m-63.523 0c23.389 0 42.349-18.976 42.349-42.381m-42.349 42.381c23.387 0 42.349 18.974 42.349 42.381m-42.349-42.381v21.19c11.692 0 21.174 9.487 21.174 21.191m21.175-84.762c0 11.703 9.482 21.19 21.174 21.19v21.191m-105.873-42.381H275.27c0-11.704-9.482-21.191-21.175-21.191m42.349 21.191c0-23.407-18.961-42.381-42.349-42.381m148.222 0v21.19m0 63.572v21.19c-11.694 0-21.174 9.489-21.174 21.191m21.174-42.381c-23.389 0-42.349 18.976-42.349 42.381M190.571 656.905c-11.692 0-21.174-9.487-21.174-21.191h-21.175m42.349 21.191v21.19m0-21.19c-23.389 0-42.349 18.976-42.349 42.381m0-63.572c0 23.407 18.962 42.381 42.349 42.381m-42.349-42.381c0 23.405-18.96 42.381-42.349 42.381m42.349-42.381h-21.174c0 11.702-9.48 21.191-21.175 21.191m84.698 21.19c-11.694 0-21.174 9.489-21.174 21.191h-21.175m63.524-63.572h21.175m-21.175 63.572c0 11.701-9.48 21.19-21.175 21.19v21.191m21.175-42.381h21.175m-21.175 0c0 23.407 18.962 42.381 42.349 42.381m-63.524 0c23.39 0 42.35-18.976 42.35-42.381m-42.35 42.381c23.388 0 42.35 18.974 42.35 42.381m-42.35-42.381v21.19c11.693 0 21.175 9.487 21.175 21.191m21.175-84.762c0 11.703 9.482 21.19 21.174 21.19v21.191m-105.873-42.381h-21.174c0-11.704-9.482-21.191-21.175-21.191m42.349 21.191c0-23.407-18.962-42.381-42.349-42.381m148.222 0v21.19m0 63.572v21.19c-11.695 0-21.174 9.489-21.174 21.191m21.174-42.381c-23.389 0-42.349 18.976-42.349 42.381M42.349 656.905c-11.692 0-21.174-9.487-21.174-21.191H0c0 23.407 18.962 42.381 42.35 42.381m0-21.19v21.19m0-21.19C18.96 656.905 0 675.881 0 699.286h21.175c0-11.702 9.48-21.191 21.174-21.191m21.175-42.381h21.174m-21.174 63.572c0 11.701-9.48 21.19-21.175 21.19v21.191m21.175-42.381h21.174m-21.174 0c0 23.407 18.962 42.381 42.349 42.381m-63.524 0c23.39 0 42.35-18.976 42.35-42.381m-42.35 42.381c23.388 0 42.35 18.974 42.35 42.381m-42.35-42.381v21.19c11.693 0 21.175 9.487 21.175 21.191m21.174-84.762c0 11.703 9.482 21.19 21.175 21.19v21.191m0-84.762v21.19m0 63.572v21.19c-11.695 0-21.175 9.489-21.175 21.191m21.175-42.381c-23.39 0-42.35 18.976-42.35 42.381m275.271 21.19c-11.693 0-21.175-9.487-21.175-21.19h-21.175m42.35 21.19v21.191m0-21.191c-23.39 0-42.35 18.976-42.35 42.381m0-63.571c0 23.407 18.962 42.381 42.35 42.381m-42.35-42.381c0 23.405-18.959 42.381-42.349 42.381m42.349-42.381H275.27c0 11.701-9.48 21.19-21.175 21.19m84.699 21.191c-11.695 0-21.175 9.489-21.175 21.19h-21.175m63.524-63.571h21.175m-21.175 63.571c0 11.702-9.48 21.191-21.174 21.191V890c23.389 0 42.349-18.976 42.349-42.381m-21.175 0h21.175m-21.175 0c0 23.407 18.962 42.381 42.349 42.381v-21.19c-11.692 0-21.174-9.487-21.174-21.191m-84.699 0H275.27c0-11.703-9.482-21.19-21.175-21.19m42.349 21.19c0-23.407-18.961-42.381-42.349-42.381m148.222 0v21.191m-211.746-21.191c-11.692 0-21.174-9.487-21.174-21.19h-21.175m42.349 21.19v21.191m0-21.191c-23.389 0-42.349 18.976-42.349 42.381m0-63.571c0 23.407 18.962 42.381 42.349 42.381m-42.349-42.381c0 23.405-18.96 42.381-42.349 42.381m42.349-42.381h-21.174c0 11.701-9.48 21.19-21.175 21.19m84.698 21.191c-11.694 0-21.174 9.489-21.174 21.19h-21.175m63.524-63.571h21.175m-21.175 63.571c0 11.702-9.48 21.191-21.175 21.191V890c23.39 0 42.35-18.976 42.35-42.381m-21.175 0h21.175m-21.175 0c0 23.407 18.962 42.381 42.349 42.381v-21.19c-11.692 0-21.174-9.487-21.174-21.191m-84.699 0h-21.174c0-11.703-9.482-21.19-21.175-21.19m42.349 21.19c0-23.407-18.962-42.381-42.349-42.381m148.222 0v21.191M42.349 805.238c-11.692 0-21.174-9.487-21.174-21.19H0c0 23.407 18.962 42.381 42.35 42.381m0-21.191v21.191m0-21.191C18.96 805.238 0 824.214 0 847.619h21.175c0-11.701 9.48-21.19 21.174-21.19m21.175-42.381h21.174m-21.174 63.571c0 11.702-9.48 21.191-21.175 21.191V890c23.39 0 42.35-18.976 42.35-42.381m-21.175 0h21.174m-21.174 0c0 23.407 18.962 42.381 42.349 42.381v-21.19c-11.693 0-21.175-9.487-21.175-21.191m21.175-42.381v21.191M1259.89 63.572c-5.85 0-10.59 4.744-10.59 10.595 0 5.85 4.74 10.595 10.59 10.595s10.59-4.745 10.59-10.595c0-5.851-4.74-10.596-10.59-10.596Zm-148.22 0c-5.85 0-10.59 4.744-10.59 10.595 0 5.85 4.74 10.595 10.59 10.595 5.84 0 10.58-4.745 10.58-10.595 0-5.851-4.74-10.596-10.58-10.596Zm-148.226 0c-5.846 0-10.587 4.744-10.587 10.595 0 5.85 4.741 10.595 10.587 10.595 5.847 0 10.588-4.745 10.588-10.595 0-5.851-4.741-10.596-10.588-10.596Zm296.446 148.333c-5.85 0-10.59 4.744-10.59 10.595 0 5.851 4.74 10.595 10.59 10.595s10.59-4.744 10.59-10.595c0-5.851-4.74-10.595-10.59-10.595Zm-148.22 0c-5.85 0-10.59 4.744-10.59 10.595 0 5.851 4.74 10.595 10.59 10.595 5.84 0 10.58-4.744 10.58-10.595 0-5.851-4.74-10.595-10.58-10.595Zm-148.226 0c-5.846 0-10.587 4.744-10.587 10.595 0 5.851 4.741 10.595 10.587 10.595 5.847 0 10.588-4.744 10.588-10.595 0-5.851-4.741-10.595-10.588-10.595Zm296.446 148.333c-5.85 0-10.59 4.745-10.59 10.595 0 5.851 4.74 10.596 10.59 10.596s10.59-4.745 10.59-10.596c0-5.85-4.74-10.595-10.59-10.595Zm-148.22 0c-5.85 0-10.59 4.745-10.59 10.595 0 5.851 4.74 10.596 10.59 10.596 5.84 0 10.58-4.745 10.58-10.596 0-5.85-4.74-10.595-10.58-10.595Zm-148.226 0c-5.846 0-10.587 4.745-10.587 10.595 0 5.851 4.741 10.596 10.587 10.596 5.847 0 10.588-4.745 10.588-10.596 0-5.85-4.741-10.595-10.588-10.595Zm296.446 148.334c-5.85 0-10.59 4.744-10.59 10.595 0 5.85 4.74 10.595 10.59 10.595s10.59-4.745 10.59-10.595c0-5.851-4.74-10.595-10.59-10.595Zm-148.22 0c-5.85 0-10.59 4.744-10.59 10.595 0 5.85 4.74 10.595 10.59 10.595 5.84 0 10.58-4.745 10.58-10.595 0-5.851-4.74-10.595-10.58-10.595Zm-148.226 0c-5.846 0-10.587 4.744-10.587 10.595 0 5.85 4.741 10.595 10.587 10.595 5.847 0 10.588-4.745 10.588-10.595 0-5.851-4.741-10.595-10.588-10.595Zm296.446 148.333c-5.85 0-10.59 4.744-10.59 10.595 0 5.851 4.74 10.595 10.59 10.595s10.59-4.744 10.59-10.595c0-5.851-4.74-10.595-10.59-10.595Zm-148.22 0c-5.85 0-10.59 4.744-10.59 10.595 0 5.851 4.74 10.595 10.59 10.595 5.84 0 10.58-4.744 10.58-10.595 0-5.851-4.74-10.595-10.58-10.595Zm-148.226 0c-5.846 0-10.587 4.744-10.587 10.595 0 5.851 4.741 10.595 10.587 10.595 5.847 0 10.588-4.744 10.588-10.595 0-5.851-4.741-10.595-10.588-10.595Zm296.446 148.333c-5.85 0-10.59 4.745-10.59 10.595 0 5.851 4.74 10.596 10.59 10.596s10.59-4.745 10.59-10.596c0-5.85-4.74-10.595-10.59-10.595Zm-148.22 0c-5.85 0-10.59 4.745-10.59 10.595 0 5.851 4.74 10.596 10.59 10.596 5.84 0 10.58-4.745 10.58-10.596 0-5.85-4.74-10.595-10.58-10.595Zm-148.226 0c-5.846 0-10.587 4.745-10.587 10.595 0 5.851 4.741 10.596 10.587 10.596 5.847 0 10.588-4.745 10.588-10.596 0-5.85-4.741-10.595-10.588-10.595ZM815.222 63.571c-5.846 0-10.587 4.745-10.587 10.596 0 5.85 4.741 10.595 10.587 10.595 5.847 0 10.588-4.745 10.588-10.595 0-5.851-4.741-10.596-10.588-10.596Zm-148.222 0c-5.846 0-10.587 4.745-10.587 10.596 0 5.85 4.741 10.595 10.587 10.595s10.587-4.745 10.587-10.595c0-5.851-4.741-10.596-10.587-10.596Zm-148.222 0c-5.847 0-10.588 4.745-10.588 10.596 0 5.85 4.741 10.595 10.588 10.595 5.846 0 10.587-4.745 10.587-10.595 0-5.851-4.741-10.596-10.587-10.596Zm296.444 148.334c-5.846 0-10.587 4.744-10.587 10.595 0 5.851 4.741 10.595 10.587 10.595 5.847 0 10.588-4.744 10.588-10.595 0-5.851-4.741-10.595-10.588-10.595Zm-148.222 0c-5.846 0-10.587 4.744-10.587 10.595 0 5.851 4.741 10.595 10.587 10.595s10.587-4.744 10.587-10.595c0-5.851-4.741-10.595-10.587-10.595Zm-148.222 0c-5.847 0-10.588 4.744-10.588 10.595 0 5.851 4.741 10.595 10.588 10.595 5.846 0 10.587-4.744 10.587-10.595 0-5.851-4.741-10.595-10.587-10.595Zm296.444 148.333c-5.846 0-10.587 4.745-10.587 10.595 0 5.851 4.741 10.596 10.587 10.596 5.847 0 10.588-4.745 10.588-10.596 0-5.85-4.741-10.595-10.588-10.595Zm-148.222 0c-5.846 0-10.587 4.745-10.587 10.595 0 5.851 4.741 10.596 10.587 10.596s10.587-4.745 10.587-10.596c0-5.85-4.741-10.595-10.587-10.595Zm-148.222 0c-5.847 0-10.588 4.745-10.588 10.595 0 5.851 4.741 10.596 10.588 10.596 5.846 0 10.587-4.745 10.587-10.596 0-5.85-4.741-10.595-10.587-10.595Zm296.444 148.334c-5.846 0-10.587 4.744-10.587 10.595 0 5.85 4.741 10.595 10.587 10.595 5.847 0 10.588-4.745 10.588-10.595 0-5.851-4.741-10.595-10.588-10.595Zm-148.222 0c-5.846 0-10.587 4.744-10.587 10.595 0 5.85 4.741 10.595 10.587 10.595s10.587-4.745 10.587-10.595c0-5.851-4.741-10.595-10.587-10.595Zm-148.222-.001c-5.847 0-10.588 4.745-10.588 10.596 0 5.85 4.741 10.595 10.588 10.595 5.846 0 10.587-4.745 10.587-10.595 0-5.851-4.741-10.596-10.587-10.596Zm296.444 148.334c-5.846 0-10.587 4.744-10.587 10.595 0 5.851 4.741 10.595 10.587 10.595 5.847 0 10.588-4.744 10.588-10.595 0-5.851-4.741-10.595-10.588-10.595Zm-148.222 0c-5.846 0-10.587 4.744-10.587 10.595 0 5.851 4.741 10.595 10.587 10.595s10.587-4.744 10.587-10.595c0-5.851-4.741-10.595-10.587-10.595Zm-148.222 0c-5.847 0-10.588 4.744-10.588 10.595 0 5.851 4.741 10.595 10.588 10.595 5.846 0 10.587-4.744 10.587-10.595 0-5.851-4.741-10.595-10.587-10.595Zm296.444 148.333c-5.846 0-10.587 4.745-10.587 10.595 0 5.851 4.741 10.596 10.587 10.596 5.847 0 10.588-4.745 10.588-10.596 0-5.85-4.741-10.595-10.588-10.595Zm-148.222 0c-5.846 0-10.587 4.745-10.587 10.595 0 5.851 4.741 10.596 10.587 10.596s10.587-4.745 10.587-10.596c0-5.85-4.741-10.595-10.587-10.595Zm-148.222 0c-5.847 0-10.588 4.745-10.588 10.595 0 5.851 4.741 10.596 10.588 10.596 5.846 0 10.587-4.745 10.587-10.596 0-5.85-4.741-10.595-10.587-10.595ZM370.556 63.571c-5.847 0-10.588 4.745-10.588 10.596 0 5.85 4.741 10.595 10.588 10.595 5.846 0 10.587-4.745 10.587-10.595 0-5.851-4.741-10.596-10.587-10.596Zm-148.223 0c-5.846 0-10.587 4.745-10.587 10.596 0 5.85 4.741 10.595 10.587 10.595 5.847 0 10.588-4.745 10.588-10.595 0-5.851-4.741-10.596-10.588-10.596Zm-148.222 0c-5.846 0-10.587 4.745-10.587 10.596 0 5.85 4.74 10.595 10.587 10.595 5.846 0 10.587-4.745 10.587-10.595 0-5.851-4.74-10.596-10.587-10.596Zm296.445 148.334c-5.847 0-10.588 4.744-10.588 10.595 0 5.851 4.741 10.595 10.588 10.595 5.846 0 10.587-4.744 10.587-10.595 0-5.851-4.741-10.595-10.587-10.595Zm-148.223 0c-5.846 0-10.587 4.744-10.587 10.595 0 5.851 4.741 10.595 10.587 10.595 5.847 0 10.588-4.744 10.588-10.595 0-5.851-4.741-10.595-10.588-10.595Zm-148.222 0c-5.846 0-10.587 4.744-10.587 10.595 0 5.851 4.74 10.595 10.587 10.595 5.846 0 10.587-4.744 10.587-10.595 0-5.851-4.74-10.595-10.587-10.595Zm296.445 148.333c-5.847 0-10.588 4.745-10.588 10.595 0 5.851 4.741 10.596 10.588 10.596 5.846 0 10.587-4.745 10.587-10.596 0-5.85-4.741-10.595-10.587-10.595Zm-148.223 0c-5.846 0-10.587 4.745-10.587 10.595 0 5.851 4.741 10.596 10.587 10.596 5.847 0 10.588-4.745 10.588-10.596 0-5.85-4.741-10.595-10.588-10.595Zm-148.222 0c-5.846 0-10.587 4.745-10.587 10.595 0 5.851 4.74 10.596 10.587 10.596 5.846 0 10.587-4.745 10.587-10.596 0-5.85-4.74-10.595-10.587-10.595Zm296.445 148.333c-5.847 0-10.588 4.745-10.588 10.596 0 5.85 4.741 10.595 10.588 10.595 5.846 0 10.587-4.745 10.587-10.595 0-5.851-4.741-10.596-10.587-10.596Zm-148.223 0c-5.846 0-10.587 4.745-10.587 10.596 0 5.85 4.741 10.595 10.587 10.595 5.847 0 10.588-4.745 10.588-10.595 0-5.851-4.741-10.596-10.588-10.596Zm-148.222 0c-5.846 0-10.587 4.745-10.587 10.596 0 5.85 4.74 10.595 10.587 10.595 5.846 0 10.587-4.745 10.587-10.595 0-5.851-4.74-10.596-10.587-10.596Zm296.445 148.334c-5.847 0-10.588 4.744-10.588 10.595 0 5.851 4.741 10.595 10.588 10.595 5.846 0 10.587-4.744 10.587-10.595 0-5.851-4.741-10.595-10.587-10.595Zm-148.223 0c-5.846 0-10.587 4.744-10.587 10.595 0 5.851 4.741 10.595 10.587 10.595 5.847 0 10.588-4.744 10.588-10.595 0-5.851-4.741-10.595-10.588-10.595Zm-148.222 0c-5.846 0-10.587 4.744-10.587 10.595 0 5.851 4.74 10.595 10.587 10.595 5.846 0 10.587-4.744 10.587-10.595 0-5.851-4.74-10.595-10.587-10.595Zm296.445 148.333c-5.847 0-10.588 4.745-10.588 10.595 0 5.851 4.741 10.596 10.588 10.596 5.846 0 10.587-4.745 10.587-10.596 0-5.85-4.741-10.595-10.587-10.595Zm-148.223 0c-5.846 0-10.587 4.745-10.587 10.595 0 5.851 4.741 10.596 10.587 10.596 5.847 0 10.588-4.745 10.588-10.596 0-5.85-4.741-10.595-10.588-10.595Zm-148.222 0c-5.846 0-10.587 4.745-10.587 10.595 0 5.851 4.74 10.596 10.587 10.596 5.846 0 10.587-4.745 10.587-10.596 0-5.85-4.74-10.595-10.587-10.595Z"/></g><defs><linearGradient id="b" x1="667" x2="667" y1="0" y2="890" gradientUnits="userSpaceOnUse"><stop stop-color="#F8F2E9" style="stop-color:#f8f2e9;stop-color:color(display-p3 .9725 .949 .9137);stop-opacity:1"/><stop offset=".817" stop-color="#E5D3BD" stop-opacity="0" style="stop-color:none;stop-opacity:0"/></linearGradient><clipPath id="a"><path fill="#fff" d="M0 0h890v1334H0z" style="fill:#fff;fill-opacity:1" transform="rotate(90 667 667)"/></clipPath></defs></svg>