<svg xmlns="http://www.w3.org/2000/svg" viewBox="0 0 64 64">
<rect width="64" height="64" rx="14" fill="#FFF48D"/>
<g fill="#0e0e0c"><circle cx="33.3" cy="33.0" r="2.10"/><circle cx="30.3" cy="34.5" r="2.09"/><circle cx="32.3" cy="30.2" r="2.08"/><circle cx="34.1" cy="35.6" r="2.08"/><circle cx="28.1" cy="32.3" r="2.07"/><circle cx="35.7" cy="30.8" r="2.06"/><circle cx="30.8" cy="37.4" r="2.05"/><circle cx="29.7" cy="28.7" r="2.05"/><circle cx="37.1" cy="34.8" r="2.04"/><circle cx="26.7" cy="35.1" r="2.03"/><circle cx="34.6" cy="27.8" r="2.02"/><circle cx="33.9" cy="38.8" r="2.02"/><circle cx="26.3" cy="29.8" r="2.01"/><circle cx="38.7" cy="31.6" r="2.00"/><circle cx="27.9" cy="38.6" r="1.99"/><circle cx="31.1" cy="26.0" r="1.99"/><circle cx="37.8" cy="37.7" r="1.98"/><circle cx="24.2" cy="33.3" r="1.97"/><circle cx="37.7" cy="27.6" r="1.96"/><circle cx="31.6" cy="40.9" r="1.96"/><circle cx="26.6" cy="26.8" r="1.95"/><circle cx="40.5" cy="34.1" r="1.94"/><circle cx="24.8" cy="37.8" r="1.93"/><circle cx="34.0" cy="24.6" r="1.92"/><circle cx="36.6" cy="40.7" r="1.92"/><circle cx="23.1" cy="30.3" r="1.91"/><circle cx="40.7" cy="29.1" r="1.90"/><circle cx="28.2" cy="41.6" r="1.89"/><circle cx="28.6" cy="24.0" r="1.88"/><circle cx="40.9" cy="37.5" r="1.88"/><circle cx="22.1" cy="35.5" r="1.87"/><circle cx="37.6" cy="24.6" r="1.86"/><circle cx="33.8" cy="43.0" r="1.85"/><circle cx="23.5" cy="26.7" r="1.84"/><circle cx="42.9" cy="32.1" r="1.83"/><circle cx="24.5" cy="40.8" r="1.83"/><circle cx="32.1" cy="22.2" r="1.82"/><circle cx="39.6" cy="41.1" r="1.81"/><circle cx="20.5" cy="32.0" r="1.80"/><circle cx="41.3" cy="26.2" r="1.79"/><circle cx="29.9" cy="44.2" r="1.78"/><circle cx="25.6" cy="23.3" r="1.77"/><circle cx="43.7" cy="36.1" r="1.76"/><circle cx="21.1" cy="38.4" r="1.76"/><circle cx="36.3" cy="21.8" r="1.75"/><circle cx="36.7" cy="44.2" r="1.74"/><circle cx="20.5" cy="27.8" r="1.73"/><circle cx="44.2" cy="29.4" r="1.72"/><circle cx="25.5" cy="43.7" r="1.71"/><circle cx="29.3" cy="20.7" r="1.70"/><circle cx="42.8" cy="40.3" r="1.69"/><circle cx="18.8" cy="34.6" r="1.68"/><circle cx="40.7" cy="23.2" r="1.67"/><circle cx="32.5" cy="46.0" r="1.66"/><circle cx="22.4" cy="23.6" r="1.65"/><circle cx="45.8" cy="33.7" r="1.64"/><circle cx="21.2" cy="41.5" r="1.63"/><circle cx="33.9" cy="19.6" r="1.62"/><circle cx="40.1" cy="44.2" r="1.61"/><circle cx="18.0" cy="29.9" r="1.60"/><circle cx="44.6" cy="26.2" r="1.59"/><circle cx="27.5" cy="46.3" r="1.58"/><circle cx="25.9" cy="20.2" r="1.57"/><circle cx="45.6" cy="38.6" r="1.56"/><circle cx="17.9" cy="37.8" r="1.55"/><circle cx="39.1" cy="20.2" r="1.54"/><circle cx="35.8" cy="47.1" r="1.52"/><circle cx="19.2" cy="25.0" r="1.51"/><circle cx="47.2" cy="30.6" r="1.50"/><circle cx="22.4" cy="44.7" r="1.49"/><circle cx="30.8" cy="18.1" r="1.48"/><circle cx="43.5" cy="43.3" r="1.47"/><circle cx="16.2" cy="32.9" r="1.46"/><circle cx="43.9" cy="22.8" r="1.44"/><circle cx="30.4" cy="48.3" r="1.43"/><circle cx="22.3" cy="20.6" r="1.42"/><circle cx="48.0" cy="35.9" r="1.41"/><circle cx="18.1" cy="41.3" r="1.39"/><circle cx="36.4" cy="17.8" r="1.38"/><circle cx="39.5" cy="47.2" r="1.37"/><circle cx="16.4" cy="27.4" r="1.35"/><circle cx="47.6" cy="27.0" r="1.34"/><circle cx="24.7" cy="47.6" r="1.32"/><circle cx="27.1" cy="17.4" r="1.31"/><circle cx="46.7" cy="41.4" r="1.30"/><circle cx="15.2" cy="36.4" r="1.28"/><circle cx="42.1" cy="19.5" r="1.27"/><circle cx="34.1" cy="49.6" r="1.25"/><circle cx="18.7" cy="22.1" r="1.24"/><circle cx="49.6" cy="32.5" r="1.22"/><circle cx="19.3" cy="44.9" r="1.20"/><circle cx="33.0" cy="16.0" r="1.19"/><circle cx="43.3" cy="46.3" r="1.17"/><circle cx="14.2" cy="30.5" r="1.15"/><circle cx="46.9" cy="23.2" r="1.15"/><circle cx="27.8" cy="50.0" r="1.15"/><circle cx="23.1" cy="17.7" r="1.15"/><circle cx="49.4" cy="38.5" r="1.15"/><circle cx="15.2" cy="40.3" r="1.15"/><circle cx="39.3" cy="16.6" r="1.15"/><circle cx="38.1" cy="49.9" r="1.15"/><circle cx="15.5" cy="24.5" r="1.15"/><circle cx="50.2" cy="28.6" r="1.15"/><circle cx="21.6" cy="48.2" r="1.15"/><circle cx="29.0" cy="15.0" r="1.15"/><circle cx="47.0" cy="44.4" r="1.15"/><circle cx="12.9" cy="34.3" r="1.15"/><circle cx="45.2" cy="19.5" r="1.15"/><circle cx="31.7" cy="51.6" r="1.15"/><circle cx="19.1" cy="19.0" r="1.15"/></g>
<g>
<circle cx="26" cy="29" r="5.2" fill="#fdfbf2"/>
<circle cx="38.5" cy="29" r="5.2" fill="#fdfbf2"/>
<circle cx="27.4" cy="29.6" r="2.4" fill="#0e0e0c"/>
<circle cx="39.9" cy="29.6" r="2.4" fill="#0e0e0c"/>
</g>
</svg>