<svg width="117" height="36" viewBox="0 0 117 36" fill="none" xmlns="http://www.w3.org/2000/svg">
<path d="M57.4577 20.6304V20.5321H54.6025V20.6216C54.6025 23.0446 52.6117 24.6665 50.049 24.6665C47.4863 24.6665 45.7618 23.0534 45.7618 20.6304C45.7618 18.179 47.4601 16.568 50.049 16.568H50.6362V13.7238H49.99C45.7269 13.7238 42.6403 16.6182 42.6403 20.6304C42.6403 24.8062 45.537 27.4802 50.1035 27.4802C52.6662 27.4802 54.2248 28.5367 54.2248 30.2656C54.2248 32.0184 52.5549 33.1906 50.049 33.1906C47.4317 33.1906 45.7902 31.8525 45.8447 29.8203H42.78C42.6119 33.5224 45.5086 36 50.049 36C54.4758 36 57.3725 33.7734 57.3725 30.2939C57.3725 28.2617 56.1479 26.7293 53.9498 25.9195C56.2331 24.9175 57.4577 23.0817 57.4577 20.6304ZM54.6025 16.568V19.1526H54.6046V16.568H54.6025Z" fill="#F5EDDE" style="fill:#F5EDDE;fill-opacity:1;"/>
<path d="M54.6069 19.1526V16.568H52.018V13.7238H57.4533V18.5588V19.1526H54.6069Z" fill="#ED7D31" style="fill:#ED7D31;fill:color(display-p3 0.9294 0.4902 0.1922);fill-opacity:1;"/>
<path d="M60.2104 20.8791C60.2104 16.7579 63.0787 13.6953 67.5624 13.6953C72.0176 13.6953 74.8859 16.7579 74.8859 20.8791C74.8859 25.0004 72.0176 28.063 67.5624 28.063C63.0787 28.063 60.2104 25.0004 60.2104 20.8791ZM71.7666 20.8791C71.7666 18.4845 70.1229 16.5352 67.5624 16.5352C64.9735 16.5352 63.3298 18.4845 63.3298 20.8791C63.3298 23.2738 64.9735 25.2231 67.5624 25.2231C70.1251 25.2231 71.7666 23.2738 71.7666 20.8791Z" fill="#F5EDDE" style="fill:#F5EDDE;fill-opacity:1;"/>
<path d="M17.9782 0C8.04827 0 0 8.04825 0 17.9781C0 27.908 8.04827 35.9563 17.9782 35.9563C27.9081 35.9563 35.9564 27.908 35.9564 17.9781C35.9564 8.04825 27.9103 0 17.9782 0ZM20.0235 29.5758H17.2142C10.838 29.5561 5.65365 24.3543 5.65365 17.976C5.65365 11.6413 10.7725 6.46567 17.0898 6.38053V10.6721C13.1366 10.755 9.94083 14.0097 9.94083 17.976C9.94083 21.9466 13.1366 25.1991 17.0898 25.282L18.2489 25.2842L18.286 25.2471L23.2149 20.316L23.4288 20.1064H14.4135V15.8149H23.4288L23.2171 15.6032L18.8382 11.2243L21.8724 8.19014L31.6386 17.9585L20.0235 29.5758Z" fill="#ED7D31" style="fill:#ED7D31;fill:color(display-p3 0.9294 0.4902 0.1922);fill-opacity:1;"/>
<path d="M98.4652 8.1377V27.7028H95.2237V13.6713L88.4327 22.2805H87.7342L80.9695 13.6997V27.7028H77.6995V8.1377H80.6617L88.0966 17.6135L95.5314 8.1377H98.4652Z" fill="#F5EDDE" style="fill:#F5EDDE;fill-opacity:1;"/>
<path d="M102.562 8.1377H105.832V24.6555H116.147V27.7028H102.562V8.1377Z" fill="#F5EDDE" style="fill:#F5EDDE;fill-opacity:1;"/>
</svg>